# Blender v2.91.2 OBJ File: ''
# www.blender.org
mtllib Колонна.mtl
o Цилиндр_Цилиндр.001
v 0.000000 0.300326 -0.450000
v 0.172208 0.300326 -0.415746
v 0.318198 0.300326 -0.318198
v 0.415746 0.300326 -0.172208
v 0.450000 0.300326 0.000000
v 0.415746 0.300326 0.172208
v 0.318198 0.300326 0.318198
v 0.172208 0.300326 0.415746
v 0.000000 0.300326 0.450000
v -0.172207 0.300326 0.415746
v -0.318198 0.300326 0.318198
v -0.415746 0.300326 0.172208
v -0.450000 0.300326 -0.000000
v -0.415746 0.300326 -0.172208
v -0.318198 0.300326 -0.318198
v -0.172207 0.300326 -0.415746
v 0.000000 1.672227 -0.450000
v 0.172208 1.672227 -0.415746
v 0.318198 1.672227 -0.318198
v 0.415746 1.672227 -0.172208
v 0.450000 1.672227 0.000000
v 0.415746 1.672227 0.172208
v 0.318198 1.672227 0.318198
v 0.172208 1.672227 0.415746
v 0.000000 1.672227 0.450000
v -0.172207 1.672227 0.415746
v -0.318198 1.672227 0.318198
v -0.415746 1.672227 0.172208
v -0.450000 1.672227 -0.000000
v -0.415746 1.672227 -0.172208
v -0.318198 1.672227 -0.318198
v -0.172207 1.672227 -0.415746
v 0.193514 2.017717 -0.467183
v -0.000000 2.017717 -0.505675
v -0.000000 1.695879 -0.505675
v 0.357567 2.017717 -0.357567
v 0.467183 2.017717 -0.193514
v 0.505675 2.017717 0.000000
v 0.467183 2.017717 0.193514
v 0.357567 2.017717 0.357567
v 0.193514 2.017717 0.467183
v 0.000000 2.017717 0.505675
v -0.193514 2.017717 0.467183
v -0.357566 2.017717 0.357567
v -0.467183 2.017717 0.193514
v -0.505675 2.017717 -0.000000
v -0.467183 2.017717 -0.193514
v -0.357566 2.017717 -0.357567
v -0.193513 2.017717 -0.467183
v 0.193514 1.695879 -0.467183
v 0.357567 1.695879 -0.357567
v 0.467183 1.695879 -0.193514
v 0.505675 1.695879 0.000000
v 0.467183 1.695879 0.193514
v 0.357567 1.695879 0.357567
v 0.193514 1.695879 0.467183
v 0.000000 1.695879 0.505675
v -0.193514 1.695879 0.467183
v -0.357566 1.695879 0.357567
v -0.467183 1.695879 0.193514
v -0.505675 1.695879 -0.000000
v -0.467183 1.695879 -0.193514
v -0.357566 1.695879 -0.357567
v -0.193513 1.695879 -0.467183
v -0.000000 0.000673 -0.504051
v 0.192892 0.000673 -0.465683
v 0.192892 0.291861 -0.465683
v 0.356418 0.000673 -0.356418
v 0.356418 0.291861 -0.356418
v 0.465683 0.000673 -0.192892
v 0.465683 0.291861 -0.192892
v 0.504051 0.000673 0.000000
v 0.504051 0.291861 0.000000
v 0.465683 0.000673 0.192892
v 0.465683 0.291861 0.192892
v 0.356418 0.000673 0.356418
v 0.356418 0.291861 0.356418
v 0.192892 0.000673 0.465683
v 0.192892 0.291861 0.465683
v 0.000000 0.000673 0.504051
v 0.000000 0.291861 0.504051
v -0.192892 0.000673 0.465683
v -0.192892 0.291861 0.465683
v -0.356418 0.000673 0.356418
v -0.356418 0.291861 0.356418
v -0.465683 0.000673 0.192892
v -0.465683 0.291861 0.192892
v -0.504051 0.000673 -0.000000
v -0.504051 0.291861 -0.000000
v -0.465683 0.000673 -0.192892
v -0.465683 0.291861 -0.192892
v -0.356418 0.000673 -0.356418
v -0.356418 0.291861 -0.356418
v -0.192892 0.000673 -0.465683
v -0.192892 0.291861 -0.465683
v -0.000000 0.291861 -0.504051
vt 0.944015 0.566902
vt 0.944015 0.566902
vt 0.944015 0.566902
vt 0.944015 0.566902
vt 0.944015 0.566902
vt 0.944015 0.566902
vt 0.944015 0.566902
vt 0.944015 0.566902
vt 0.944015 0.566902
vt 0.944015 0.566902
vt 0.944015 0.566902
vt 0.944015 0.566902
vt 0.944015 0.566902
vt 0.944015 0.566902
vt 0.944015 0.566902
vt 0.944015 0.566902
vt 0.944015 0.566902
vt 0.944015 0.566902
vt 0.944015 0.566902
vt 0.944015 0.566902
vt 0.944015 0.566902
vt 0.944015 0.566902
vt 0.944015 0.566902
vt 0.944015 0.566902
vt 0.944015 0.566902
vt 0.944015 0.566902
vt 0.944015 0.566902
vt 0.944015 0.566902
vt 0.944015 0.566902
vt 0.944015 0.566902
vt 0.944015 0.566902
vt 0.944015 0.566902
vt 0.944015 0.566902
vt 0.944015 0.566902
vt 0.944015 0.566902
vt 0.944015 0.566902
vt 0.944015 0.566902
vt 0.944015 0.566902
vt 0.944015 0.566902
vt 0.944015 0.566902
vt 0.944015 0.566902
vt 0.944015 0.566902
vt 0.944015 0.566902
vt 0.944015 0.566902
vt 0.944015 0.566902
vt 0.944015 0.566902
vt 0.944015 0.566902
vt 0.944015 0.566902
vt 0.944015 0.566902
vt 0.944015 0.566902
vt 0.944015 0.566902
vt 0.944015 0.566902
vt 0.944015 0.566902
vt 0.944015 0.566902
vt 0.944015 0.566902
vt 0.944015 0.566902
vt 0.944015 0.566902
vt 0.944015 0.566902
vt 0.944015 0.566902
vt 0.944015 0.566902
vt 0.944015 0.566902
vt 0.944015 0.566902
vt 0.944015 0.566902
vt 0.944015 0.566902
vt 0.944015 0.566902
vt 0.944015 0.566902
vt 0.944015 0.566902
vt 0.944015 0.566902
vt 0.944015 0.566902
vt 0.944015 0.566902
vt 0.944015 0.566902
vt 0.944015 0.566902
vt 0.947876 0.520471
vt 0.947876 0.520471
vt 0.947876 0.520471
vt 0.947876 0.520471
vt 0.947876 0.520471
vt 0.947876 0.520471
vt 0.947876 0.520471
vt 0.947876 0.520471
vt 0.947876 0.520471
vt 0.947876 0.520471
vt 0.947876 0.520471
vt 0.947876 0.520471
vt 0.947876 0.520471
vt 0.947876 0.520471
vt 0.947876 0.520471
vt 0.947876 0.520471
vt 0.947876 0.520471
vt 0.947876 0.520471
vt 0.947876 0.520471
vt 0.947876 0.520471
vt 0.947876 0.520471
vt 0.947876 0.520471
vt 0.947876 0.520471
vt 0.947876 0.520471
vt 0.947876 0.520471
vt 0.947876 0.520471
vt 0.947876 0.520471
vt 0.947876 0.520471
vt 0.947876 0.520471
vt 0.947876 0.520471
vt 0.947876 0.520471
vt 0.947876 0.520471
vt 0.944015 0.566902
vt 0.944015 0.566902
vt 0.944015 0.566902
vt 0.944015 0.566902
vt 0.944015 0.566902
vt 0.944015 0.566902
vt 0.944015 0.566902
vt 0.944015 0.566902
vt 0.944015 0.566902
vt 0.944015 0.566902
vt 0.944015 0.566902
vt 0.944015 0.566902
vt 0.944015 0.566902
vt 0.944015 0.566902
vt 0.944015 0.566902
vt 0.944015 0.566902
vt 0.944015 0.566902
vt 0.944015 0.566902
vt 0.944015 0.566902
vt 0.944015 0.566902
vt 0.944015 0.566902
vt 0.944015 0.566902
vt 0.944015 0.566902
vt 0.944015 0.566902
vn -0.3612 -0.9204 -0.1496
vn -0.3910 -0.9204 0.0000
vn -0.2765 -0.9204 -0.2765
vn 0.0000 1.0000 -0.0000
vn 0.1496 -0.9204 -0.3612
vn 0.0000 -0.9204 -0.3910
vn -0.1496 -0.9204 -0.3612
vn 0.2765 -0.9204 -0.2765
vn 0.3612 -0.9204 -0.1496
vn 0.3910 -0.9204 0.0000
vn 0.0000 0.9880 0.1547
vn -0.0592 0.9880 0.1429
vn -0.1094 0.9880 0.1094
vn 0.0000 -1.0000 -0.0000
vn -0.1429 0.9880 0.0592
vn -0.1547 0.9880 -0.0000
vn -0.1429 0.9880 -0.0592
vn -0.1094 0.9880 -0.1094
vn 0.0000 0.9880 -0.1547
vn 0.0592 0.9880 -0.1429
vn -0.0592 0.9880 -0.1429
vn 0.1094 0.9880 -0.1094
vn -0.3827 0.0000 -0.9239
vn 0.0000 0.0000 -1.0000
vn -0.7071 0.0000 -0.7071
vn -0.9239 0.0000 -0.3827
vn -1.0000 0.0000 -0.0000
vn -0.9239 0.0000 0.3827
vn -0.7071 0.0000 0.7071
vn -0.3827 0.0000 0.9239
vn 0.0000 0.0000 1.0000
vn 0.3827 0.0000 0.9239
vn 0.7071 0.0000 0.7071
vn 0.9239 0.0000 0.3827
vn 1.0000 0.0000 0.0000
vn 0.9239 0.0000 -0.3827
vn 0.7071 0.0000 -0.7071
vn 0.3827 0.0000 -0.9239
vn -0.3612 -0.9204 0.1496
vn -0.2765 -0.9204 0.2765
vn -0.1496 -0.9204 0.3612
vn 0.0000 -0.9204 0.3910
vn 0.1496 -0.9204 0.3612
vn 0.2765 -0.9204 0.2765
vn 0.3612 -0.9204 0.1496
vn 0.0592 0.9880 0.1429
vn 0.1094 0.9880 0.1094
vn 0.1429 0.9880 0.0592
vn 0.1547 0.9880 -0.0000
vn 0.1429 0.9880 -0.0592
usemtl Материал
s 1
f 30/1/1 29/2/2 61/3/2 62/4/1
f 31/5/3 30/1/1 62/4/1 63/6/3
f 49/7/4 48/8/4 47/9/4 46/10/4 45/11/4 44/12/4 43/13/4 42/14/4 41/15/4 40/16/4 39/17/4 38/18/4 37/19/4 36/20/4 33/21/4 34/22/4
f 18/23/5 17/24/6 35/25/6 50/26/5
f 32/27/7 31/5/3 63/6/3 64/28/7
f 19/29/8 18/23/5 50/26/5 51/30/8
f 17/24/6 32/27/7 64/28/7 35/25/6
f 20/31/9 19/29/8 51/30/8 52/32/9
f 21/33/10 20/31/9 52/32/9 53/34/10
f 9/35/11 10/36/12 83/37/12 81/38/11
f 10/36/12 11/39/13 85/40/13 83/37/12
f 65/41/14 66/42/14 68/43/14 70/44/14 72/45/14 74/46/14 76/47/14 78/48/14 80/49/14 82/50/14 84/51/14 86/52/14 88/53/14 90/54/14 92/55/14 94/56/14
f 11/39/13 12/57/15 87/58/15 85/40/13
f 12/57/15 13/59/16 89/60/16 87/58/15
f 13/59/16 14/61/17 91/62/17 89/60/16
f 14/61/17 15/63/18 93/64/18 91/62/17
f 1/65/19 2/66/20 67/67/20 96/68/19
f 15/63/18 16/69/21 95/70/21 93/64/18
f 2/66/20 3/71/22 69/72/22 67/67/20
f 16/73/23 32/74/23 17/75/24 1/76/24
f 15/77/25 31/78/25 32/74/23 16/73/23
f 14/79/26 30/80/26 31/78/25 15/77/25
f 13/81/27 29/82/27 30/80/26 14/79/26
f 12/83/28 28/84/28 29/82/27 13/81/27
f 11/85/29 27/86/29 28/84/28 12/83/28
f 10/87/30 26/88/30 27/86/29 11/85/29
f 9/89/31 25/90/31 26/88/30 10/87/30
f 8/91/32 24/92/32 25/90/31 9/89/31
f 7/93/33 23/94/33 24/92/32 8/91/32
f 6/95/34 22/96/34 23/94/33 7/93/33
f 5/97/35 21/98/35 22/96/34 6/95/34
f 4/99/36 20/100/36 21/98/35 5/97/35
f 3/101/37 19/102/37 20/100/36 4/99/36
f 2/103/38 18/104/38 19/102/37 3/101/37
f 1/76/24 17/75/24 18/104/38 2/103/38
f 35/25/24 34/22/24 33/21/38 50/26/38
f 50/26/38 33/21/38 36/20/37 51/30/37
f 51/30/37 36/20/37 37/19/36 52/32/36
f 52/32/36 37/19/36 38/18/35 53/34/35
f 53/34/35 38/18/35 39/17/34 54/105/34
f 54/105/34 39/17/34 40/16/33 55/106/33
f 55/106/33 40/16/33 41/15/32 56/107/32
f 56/107/32 41/15/32 42/14/31 57/108/31
f 57/108/31 42/14/31 43/13/30 58/109/30
f 58/109/30 43/13/30 44/12/29 59/110/29
f 59/110/29 44/12/29 45/11/28 60/111/28
f 60/111/28 45/11/28 46/10/27 61/3/27
f 61/3/27 46/10/27 47/9/26 62/4/26
f 62/4/26 47/9/26 48/8/25 63/6/25
f 63/6/25 48/8/25 49/7/23 64/28/23
f 64/28/23 49/7/23 34/22/24 35/25/24
f 29/2/2 28/112/39 60/111/39 61/3/2
f 28/112/39 27/113/40 59/110/40 60/111/39
f 27/113/40 26/114/41 58/109/41 59/110/40
f 26/114/41 25/115/42 57/108/42 58/109/41
f 25/115/42 24/116/43 56/107/43 57/108/42
f 24/116/43 23/117/44 55/106/44 56/107/43
f 23/117/44 22/118/45 54/105/45 55/106/44
f 22/118/45 21/33/10 53/34/10 54/105/45
f 94/56/23 95/70/23 96/68/24 65/41/24
f 92/55/25 93/64/25 95/70/23 94/56/23
f 90/54/26 91/62/26 93/64/25 92/55/25
f 88/53/27 89/60/27 91/62/26 90/54/26
f 86/52/28 87/58/28 89/60/27 88/53/27
f 84/51/29 85/40/29 87/58/28 86/52/28
f 82/50/30 83/37/30 85/40/29 84/51/29
f 80/49/31 81/38/31 83/37/30 82/50/30
f 78/48/32 79/119/32 81/38/31 80/49/31
f 76/47/33 77/120/33 79/119/32 78/48/32
f 74/46/34 75/121/34 77/120/33 76/47/33
f 72/45/35 73/122/35 75/121/34 74/46/34
f 70/44/36 71/123/36 73/122/35 72/45/35
f 68/43/37 69/72/37 71/123/36 70/44/36
f 66/42/38 67/67/38 69/72/37 68/43/37
f 65/41/24 96/68/24 67/67/38 66/42/38
f 8/124/46 9/35/11 81/38/11 79/119/46
f 7/125/47 8/124/46 79/119/46 77/120/47
f 6/126/48 7/125/47 77/120/47 75/121/48
f 5/127/49 6/126/48 75/121/48 73/122/49
f 4/128/50 5/127/49 73/122/49 71/123/50
f 3/71/22 4/128/50 71/123/50 69/72/22
f 16/69/21 1/65/19 96/68/19 95/70/21
