# Blender v2.91.2 OBJ File: 'Platform.blend'
# www.blender.org
mtllib Platform.mtl
o Куб
v -1.500000 -0.050000 1.500000
v -1.500000 0.250000 1.500000
v -1.500000 -0.050000 -1.500000
v -1.500000 0.250000 -1.500000
v 1.500000 -0.050000 1.500000
v 1.500000 0.250000 1.500000
v 1.500000 -0.050000 -1.500000
v 1.500000 0.250000 -1.500000
v -1.500000 0.250000 -1.600000
v -1.500000 -0.050000 -1.600000
v 1.500000 -0.050000 -1.600000
v 1.500000 0.250000 -1.600000
v -1.500000 -0.050000 1.600000
v -1.500000 0.250000 1.600000
v 1.500000 0.250000 1.600000
v 1.500000 -0.050000 1.600000
v -1.500000 0.300000 -1.500000
v 1.500000 0.300000 -1.500000
v 1.500000 0.300000 1.500000
v -1.500000 0.300000 1.500000
v -1.500000 0.300000 -1.600000
v 1.500000 0.300000 -1.600000
v 1.500000 0.300000 1.600000
v -1.500000 0.300000 1.600000
vt 0.805019 0.759989
vt 0.805019 0.759989
vt 0.805019 0.759989
vt 0.805019 0.759989
vt 0.752957 0.806295
vt 0.752957 0.806295
vt 0.752957 0.806295
vt 0.752957 0.806295
vt 0.805019 0.759989
vt 0.805019 0.759989
vt 0.805019 0.759989
vt 0.805019 0.759989
vt 0.780696 0.806784
vt 0.780696 0.806784
vt 0.780696 0.806784
vt 0.780696 0.806784
vt 0.752957 0.806295
vt 0.752957 0.806295
vt 0.752957 0.806295
vt 0.752957 0.806295
vt 0.780696 0.806784
vt 0.780696 0.806784
vt 0.780696 0.806784
vt 0.780696 0.806784
vt 0.780696 0.806784
vt 0.780696 0.806784
vt 0.780696 0.806784
vt 0.780696 0.806784
vt 0.752957 0.806295
vt 0.752957 0.806295
vt 0.752957 0.806295
vt 0.752957 0.806295
vt 0.752957 0.806295
vt 0.752957 0.806295
vt 0.752957 0.806295
vt 0.752957 0.806295
vt 0.780696 0.806784
vt 0.780696 0.806784
vt 0.780696 0.806784
vt 0.780696 0.806784
vt 0.780696 0.806784
vt 0.780696 0.806784
vt 0.752957 0.806295
vt 0.752957 0.806295
vt 0.752957 0.806295
vt 0.752957 0.806295
vt 0.752957 0.806295
vt 0.752957 0.806295
vt 0.780696 0.806784
vt 0.780696 0.806784
vt 0.780696 0.806784
vt 0.780696 0.806784
vt 0.780696 0.806784
vt 0.780696 0.806784
vt 0.752957 0.806295
vt 0.752957 0.806295
vn -1.0000 0.0000 0.0000
vn 0.0000 0.0000 1.0000
vn 1.0000 0.0000 0.0000
vn 0.0000 -1.0000 0.0000
vn 0.0000 1.0000 0.0000
vn 0.0000 0.0000 -1.0000
usemtl Материал
s off
f 1/1/1 2/2/1 4/3/1 3/4/1
f 4/5/2 8/6/2 18/7/2 17/8/2
f 7/9/3 8/10/3 6/11/3 5/12/3
f 2/13/1 1/14/1 13/15/1 14/16/1
f 3/4/4 7/9/4 5/12/4 1/1/4
f 8/10/5 4/3/5 2/2/5 6/11/5
f 10/17/6 9/18/6 12/19/6 11/20/6
f 3/21/1 4/22/1 9/23/1 10/24/1
f 8/25/3 7/26/3 11/27/3 12/28/3
f 7/29/4 3/30/4 10/17/4 11/20/4
f 16/31/2 15/32/2 14/33/2 13/34/2
f 1/35/4 5/36/4 16/31/4 13/34/4
f 15/37/3 6/38/3 19/39/3 23/40/3
f 5/41/3 6/38/3 15/37/3 16/42/3
f 17/8/5 18/7/5 22/43/5 21/44/5
f 19/45/5 20/46/5 24/47/5 23/48/5
f 8/25/3 12/28/3 22/49/3 18/50/3
f 2/13/1 14/16/1 24/51/1 20/52/1
f 12/19/6 9/18/6 21/44/6 22/43/6
f 14/33/2 15/32/2 23/48/2 24/47/2
f 9/23/1 4/22/1 17/53/1 21/54/1
f 6/55/6 2/56/6 20/46/6 19/45/6
