# Blender v2.83.4 OBJ File: ''
# www.blender.org
mtllib мост слева.mtl
o Cube.018_Cube.032
v 4.707910 0.678396 1.558842
v 4.246183 0.658616 1.563869
v 4.223742 0.657655 1.563969
v 4.177212 0.655661 1.564178
v 4.143134 0.654202 1.564330
v 2.908906 0.601328 1.566608
v 2.908830 0.601325 1.549520
v 2.937478 0.602552 1.536863
v 4.707847 0.678394 1.544731
v 4.704143 0.763193 1.528933
v 4.704842 0.746869 1.528933
v 2.908117 0.616653 1.536992
v 2.901621 0.779124 1.537276
v 4.699574 0.870881 1.538666
v 4.699623 0.870883 1.549675
v 4.701659 0.824616 1.561802
v 4.702971 0.794002 1.561801
v 2.900652 0.793816 1.564833
v 1.633336 0.682985 1.520272
v 2.551121 0.579410 1.536071
v 2.575475 0.576661 1.536071
v 3.216370 0.698165 1.515889
v 1.654936 0.874380 1.526339
v 2.906619 0.655059 1.569860
v 1.788442 -2.268714 1.565389
v 1.788442 -2.268714 1.487554
v 1.788442 1.493430 1.487554
v 1.788442 1.493430 1.565389
v 1.866276 -2.268714 1.487554
v 1.866276 1.493430 1.487554
v 1.866276 -2.268714 1.565389
v 1.866276 1.493430 1.565389
v 3.027250 -2.217653 1.571137
v 3.027250 -2.217653 1.493303
v 3.027250 0.982915 1.493303
v 3.027250 0.982915 1.571137
v 3.105085 -2.217653 1.493303
v 3.105085 0.982915 1.493303
v 3.105085 -2.217653 1.571137
v 3.105085 0.982915 1.571137
v 4.444263 -2.189981 1.582634
v 4.444263 0.889022 1.504800
v 4.444263 0.889022 1.582634
v 4.522097 0.889022 1.504800
v 4.522097 -2.189981 1.582634
v 4.522097 0.889022 1.582634
v 4.522097 -2.186480 1.504800
v 3.194770 0.506771 1.506454
v 3.194770 0.506771 1.523542
v 1.633337 0.682985 1.506160
v 1.654936 0.874380 1.515330
v 3.216370 0.698165 1.508232
v 4.444263 -2.186480 1.504800
v 1.648830 0.663397 -1.595510
v 1.870791 0.652173 -1.591948
v 1.881574 0.651617 -1.591632
v 1.903932 0.650465 -1.590975
v 1.920306 0.649622 -1.590495
v 2.513233 0.618847 -1.569849
v 2.512672 0.617663 -1.552812
v 1.648367 0.662419 -1.581439
v 1.652025 0.745828 -1.559678
v 1.651221 0.729562 -1.560835
v 2.520805 0.793982 -1.528012
v 1.657648 0.853810 -1.561750
v 1.658010 0.854572 -1.572727
v 1.656129 0.809306 -1.588097
v 1.654621 0.778800 -1.590267
v 2.522656 0.810535 -1.554438
v 2.515986 0.672613 -1.569284
v 3.505950 0.102331 -1.620477
v 3.507003 0.103298 -1.637505
v 4.689707 0.701430 -1.527088
v 4.688837 0.700631 -1.513025
v 4.602855 0.873444 -1.528779
v 4.652253 0.777955 -1.540913
v 4.659650 0.763397 -1.541282
v 4.622396 0.830870 -1.506771
v 4.636268 0.803567 -1.507463
v 4.602176 0.872821 -1.517808
v 3.419305 0.274536 -1.625525
v 3.418833 0.274102 -1.603425
v 1.895712 -2.262366 -1.595807
v 1.895712 -2.262366 -1.517973
v 1.895712 0.985392 -1.517973
v 1.895712 0.985392 -1.595807
v 1.817878 -2.262366 -1.517973
v 1.817878 0.985392 -1.517973
v 1.817878 -2.262366 -1.595807
v 1.817878 0.985392 -1.595807
v 4.551532 -2.215775 -1.578562
v 4.551532 -2.215775 -1.500727
v 4.551532 1.583691 -1.500727
v 4.551532 1.583691 -1.578562
v 4.473698 -2.215774 -1.500727
v 4.473698 1.583691 -1.500727
v 4.473698 -2.215775 -1.578562
v 4.473698 1.583691 -1.578562
v 2.024590 0.290720 1.513653
v 2.024590 0.291356 -1.516705
v 2.024590 0.350614 -1.516705
v 2.024590 0.321238 1.513653
v 1.841082 0.355405 1.513653
v 1.608053 0.334359 1.513653
v 1.608053 0.310550 1.513653
v 1.774424 0.284324 1.513653
v 1.608053 0.335710 -1.516705
v 1.608053 0.295200 -1.516705
v 2.047649 0.351407 -0.450736
v 2.047796 0.280306 -0.451430
v 2.046791 0.346511 1.513445
v 2.046728 0.377025 1.512948
v 2.038531 0.376632 -1.516345
v 2.455063 0.392535 -1.521430
v 2.464335 0.281063 -0.457489
v 2.463354 0.334252 1.513843
v 2.463305 0.358057 1.513455
v 2.464179 0.352476 -0.437693
v 2.455126 0.408910 -1.518964
v 2.154949 0.419998 -1.511901
v 2.038671 0.413173 -1.510841
v 2.479996 0.330654 -0.338135
v 2.479996 0.278307 1.485785
v 2.479996 0.315246 1.486858
v 2.479996 0.361159 -0.337249
v 2.896533 0.350475 -0.337559
v 2.896533 0.374274 -0.336868
v 2.896533 0.326096 1.486378
v 2.896533 0.282149 1.485897
v 3.368951 0.305124 1.484382
v 2.952440 0.297724 1.489034
v 2.932080 0.284075 -0.290491
v 3.348591 0.297195 -0.295143
v 3.368951 0.342078 1.484382
v 3.348591 0.327714 -0.295143
v 2.932080 0.307884 -0.290491
v 2.952440 0.338234 1.489034
v 3.379380 0.391095 -0.347226
v 3.379320 0.328571 -0.347948
v 3.401916 0.301963 1.510345
v 3.401965 0.332476 1.510941
v 3.818392 0.288279 1.504382
v 3.795845 0.370128 -0.353330
v 3.818431 0.312083 1.504848
v 3.795872 0.386685 -0.353007
v 4.253080 0.321238 1.513653
v 4.253080 0.328310 -1.516705
v 4.253080 0.290720 1.513653
v 4.253080 0.291356 -1.516705
v 3.836543 0.334359 1.513653
v 3.836543 0.310550 1.513653
v 3.836543 0.311760 -1.516705
v 3.836543 0.295200 -1.516705
v 4.690444 0.342694 -1.559532
v 4.690445 0.342057 1.470826
v 4.690444 0.305103 1.470826
v 4.690444 0.312175 -1.559532
v 4.542260 0.278009 -1.559532
v 4.273907 0.321653 1.470826
v 4.273907 0.299055 -1.559532
v 4.506937 0.278009 -1.559532
v 4.459117 0.349090 -1.564061
v 4.273907 0.322864 -1.559532
v 4.273907 0.338213 1.470826
v 4.574175 0.349090 1.470826
vt 0.000000 0.000000
vt 0.000000 0.000000
vt 0.000000 0.000000
vt 0.000000 0.000000
vt 0.000000 0.000000
vt 0.000000 0.000000
vt 0.000000 0.000000
vt 0.000000 0.000000
vt 0.913127 0.549522
vt 0.913127 0.549522
vt 0.913127 0.549522
vt 0.913127 0.549522
vt 0.913127 0.549522
vt 0.913127 0.549522
vt 0.913127 0.549522
vt 0.913127 0.549522
vt 0.913127 0.549522
vt 0.913127 0.549522
vt 0.913127 0.549522
vt 0.913127 0.549522
vt 0.913127 0.549522
vt 0.913127 0.549522
vt 0.913127 0.549522
vt 0.913127 0.549522
vt 0.913127 0.549522
vt 0.913127 0.549522
vt 0.873020 0.593590
vt 0.873020 0.593590
vt 0.873020 0.593590
vt 0.873020 0.593590
vt 0.913127 0.549522
vt 0.873020 0.593590
vt 0.873020 0.593590
vt 0.873020 0.593590
vt 0.873020 0.593590
vt 0.873020 0.593590
vt 0.873020 0.593590
vt 0.873020 0.593590
vt 0.873020 0.593590
vt 0.873020 0.593590
vt 0.873020 0.593590
vt 0.873020 0.593590
vt 0.873020 0.593590
vt 0.873020 0.593590
vt 0.873020 0.593590
vt 0.873020 0.593590
vt 0.873020 0.593590
vt 0.873020 0.593590
vt 0.873020 0.593590
vt 0.873020 0.593590
vt 0.873020 0.593590
vt 0.913127 0.549522
vt 0.913127 0.549522
vt 0.913127 0.549522
vt 0.913127 0.549522
vt 0.913127 0.549522
vt 0.913127 0.549522
vt 0.913127 0.549522
vt 0.913127 0.549522
vt 0.913127 0.549522
vt 0.913127 0.549522
vt 0.910640 0.523226
vt 0.910640 0.523226
vt 0.910640 0.523226
vt 0.910640 0.523226
vt 0.913127 0.549522
vt 0.913127 0.549522
vt 0.913127 0.549522
vt 0.913127 0.549522
vt 0.913127 0.549522
vt 0.913127 0.549522
vt 0.913127 0.549522
vt 0.913127 0.549522
vt 0.913127 0.549522
vt 0.913127 0.549522
vt 0.913127 0.549522
vt 0.913127 0.549522
vt 0.910640 0.523226
vt 0.910640 0.523226
vt 0.910640 0.523226
vt 0.910640 0.523226
vt 0.910640 0.523226
vt 0.913127 0.549522
vt 0.913127 0.549522
vt 0.913127 0.549522
vt 0.913127 0.549522
vt 0.913127 0.549522
vt 0.913127 0.549522
vt 0.913127 0.549522
vt 0.913127 0.549522
vt 0.913127 0.549522
vt 0.913127 0.549522
vt 0.913127 0.549522
vt 0.913127 0.549522
vt 0.913127 0.549522
vt 0.913127 0.549522
vt 0.913127 0.549522
vt 0.913127 0.549522
vt 0.913127 0.549522
vt 0.873020 0.593590
vt 0.873020 0.593590
vt 0.873020 0.593590
vt 0.873020 0.593590
vt 0.873020 0.593590
vt 0.873020 0.593590
vt 0.873020 0.593590
vt 0.873020 0.593590
vt 0.873020 0.593590
vt 0.873020 0.593590
vt 0.873020 0.593590
vt 0.873020 0.593590
vt 0.873020 0.593590
vt 0.873020 0.593590
vt 0.873020 0.593590
vt 0.873020 0.593590
vt 0.910640 0.523226
vt 0.910640 0.523226
vt 0.910640 0.523226
vt 0.910640 0.523226
vt 0.910640 0.523226
vt 0.910640 0.523226
vt 0.910640 0.523226
vt 0.910640 0.523226
vt 0.910640 0.523226
vt 0.910640 0.523226
vt 0.910640 0.523226
vt 0.910640 0.523226
vt 0.910640 0.523226
vt 0.910640 0.523226
vt 0.910640 0.523226
vt 0.910640 0.523226
vt 0.910640 0.523226
vt 0.910640 0.523226
vt 0.910640 0.523226
vt 0.910640 0.523226
vt 0.910640 0.523226
vt 0.910640 0.523226
vt 0.910640 0.523226
vt 0.910640 0.523226
vt 0.910640 0.523226
vt 0.910640 0.523226
vt 0.910640 0.523226
vt 0.910640 0.523226
vt 0.910640 0.523226
vt 0.910640 0.523226
vt 0.910640 0.523226
vt 0.910640 0.523226
vt 0.910640 0.523226
vt 0.910640 0.523226
vt 0.910640 0.523226
vt 0.910640 0.523226
vt 0.910640 0.523226
vt 0.910640 0.523226
vt 0.910640 0.523226
vt 0.910640 0.523226
vt 0.910640 0.523226
vt 0.910640 0.523226
vt 0.910640 0.523226
vt 0.910640 0.523226
vt 0.910640 0.523226
vt 0.910640 0.523226
vt 0.910640 0.523226
vt 0.910640 0.523226
vt 0.910640 0.523226
vt 0.910640 0.523226
vt 0.910640 0.523226
vt 0.910640 0.523226
vt 0.910640 0.523226
vt 0.910640 0.523226
vt 0.910640 0.523226
vt 0.910640 0.523226
vt 0.910640 0.523226
vt 0.910640 0.523226
vn 1.0000 0.0000 0.0000
vn -1.0000 0.0000 0.0000
vn 0.0428 -0.9991 -0.0000
vn -0.0009 -0.0150 -0.9999
vn -0.0452 0.9332 -0.3566
vn -0.2974 -0.6125 -0.7324
vn 0.9991 0.0428 -0.0045
vn 0.0000 0.0000 1.0000
vn 0.0029 0.0369 0.9993
vn -0.9991 -0.0416 -0.0029
vn 0.0000 0.0000 -1.0000
vn 0.0000 1.0000 0.0000
vn 0.0000 -1.0000 0.0000
vn 0.0000 0.0253 0.9997
vn -0.1121 -0.9937 0.0000
vn -0.9937 0.1121 -0.0000
vn 0.1121 0.9937 0.0000
vn 0.0068 0.0401 0.9992
vn -0.0041 1.0000 -0.0026
vn 0.9937 -0.1121 0.0000
vn 0.0000 0.9990 0.0449
vn -0.0492 -0.9963 -0.0709
vn 0.0417 0.9057 0.4218
vn -0.0021 1.0000 0.0004
vn -0.0343 -0.1184 0.9924
vn -0.9982 0.0514 -0.0293
vn 0.9981 -0.0514 0.0340
vn 0.0345 0.1059 -0.9938
vn 0.4529 -0.8913 -0.0226
vn 0.8894 0.4499 0.0806
vn -0.4522 0.8918 0.0128
vn -0.0539 -0.0628 0.9966
vn 0.0525 0.0566 -0.9970
vn -0.8915 -0.4501 -0.0509
vn 0.0216 0.9997 -0.0080
vn -1.0000 -0.0021 -0.0004
vn 0.0186 -0.9951 -0.0973
vn -0.0136 -0.9994 0.0303
vn -0.0005 0.0163 0.9999
vn 1.0000 0.0032 -0.0083
vn -0.0178 0.1490 -0.9887
vn 0.0036 0.9983 0.0588
vn 0.0000 0.0290 -0.9996
vn -0.0285 0.9995 -0.0122
vn -0.0287 0.9993 0.0258
vn 0.0247 -0.9997 0.0058
vn 0.0008 -0.0192 0.9998
vn 0.9999 0.0000 -0.0114
vn -0.0112 0.0000 -0.9999
vn 0.0284 -0.9990 -0.0331
vn -0.9999 0.0000 0.0114
vn 0.0112 0.0000 0.9999
vn -0.9999 0.0010 0.0122
vn 0.0330 -0.9990 -0.0296
vn 0.0137 -0.0196 0.9997
vn 0.9999 -0.0014 -0.0122
vn -0.0140 0.0132 -0.9998
vn 0.0302 0.9989 0.0354
vn -0.0284 -0.9996 0.0024
vn -0.0041 -1.0000 0.0077
vn 0.0021 -0.0439 -0.9990
vn -0.0284 0.9996 -0.0009
vn -1.0000 -0.0006 0.0085
vn 1.0000 0.0021 0.0004
vn -0.0284 -0.9996 -0.0006
vn 0.0010 0.0285 -0.9996
usemtl Материал.008
s off
f 41/1/1 53/2/1 42/3/1 43/4/1
f 47/5/2 45/6/2 46/7/2 44/8/2
s 1
f 1/9/3 2/10/3 3/11/3 4/12/3 5/13/3 6/14/3 7/15/3 8/16/3 9/17/3
f 14/18/4 10/19/4 11/20/4 9/17/4 8/16/4 12/21/4 13/22/4
f 18/23/5 15/24/5 14/18/5 13/22/5
f 8/16/6 7/15/6 12/21/6
f 15/24/7 16/25/7 17/26/7 1/9/7 9/17/7 11/20/7 10/19/7 14/18/7
f 44/27/8 42/28/8 53/29/8 47/30/8
f 5/13/9 4/12/9 3/11/9 2/10/9 1/9/9 17/26/9 16/25/9 15/24/9 18/23/9 24/31/9 6/14/9
f 24/31/10 18/23/10 13/22/10 12/21/10 7/15/10 6/14/10
f 25/32/1 26/33/1 27/34/1 28/35/1
f 26/33/8 29/36/8 30/37/8 27/34/8
f 29/36/2 31/38/2 32/39/2 30/37/2
f 31/38/11 25/32/11 28/35/11 32/39/11
f 26/33/12 25/32/12 31/38/12 29/36/12
f 30/37/13 32/39/13 28/35/13 27/34/13
f 33/40/1 34/41/1 35/42/1 36/43/1
f 34/41/8 37/44/8 38/45/8 35/42/8
f 37/44/2 39/46/2 40/47/2 38/45/2
f 39/46/11 33/40/11 36/43/11 40/47/11
f 34/41/12 33/40/12 39/46/12 37/44/12
f 38/45/13 40/47/13 36/43/13 35/42/13
f 41/48/14 45/49/14 46/50/14 44/27/14 42/28/14 43/51/14
f 45/49/11 41/48/11 43/51/11 46/50/11
f 44/27/13 46/50/13 43/51/13 42/28/13
f 50/52/15 48/53/15 49/54/15 21/55/15 20/56/15 19/57/15
f 51/58/16 50/52/16 19/57/16 23/59/16
f 52/60/17 51/58/17 23/59/17 22/61/17
f 21/55/18 49/54/18 22/61/18 23/59/18 19/57/18 20/56/18
f 147/62/19 152/63/19 150/64/19 146/65/19
f 52/60/20 22/61/20 49/54/20 48/53/20
f 41/48/21 45/49/21 47/30/21 53/29/21
f 54/66/22 55/67/22 56/68/22 57/69/22 58/70/22 59/71/22 60/72/22 61/73/22
f 69/74/23 66/75/23 65/76/23 64/77/23
f 104/78/24 103/79/24 102/80/24 101/81/24 107/82/24
f 65/76/25 62/83/25 63/84/25 61/73/25 60/72/25 64/77/25
f 66/75/26 67/85/26 68/86/26 54/66/26 61/73/26 63/84/26 62/83/26 65/76/26
f 70/87/27 69/74/27 64/77/27 60/72/27 59/71/27
f 58/70/28 57/69/28 56/68/28 55/67/28 54/66/28 68/86/28 67/85/28 66/75/28 69/74/28 70/87/28 59/71/28
f 74/88/29 71/89/29 72/90/29 73/91/29
f 80/92/30 78/93/30 79/94/30 74/88/30 73/91/30 77/95/30 76/96/30 75/97/30
f 82/98/31 80/92/31 75/97/31 81/99/31
f 71/89/32 74/88/32 79/94/32 78/93/32 80/92/32 82/98/32
f 72/90/33 81/99/33 75/97/33 76/96/33 77/95/33 73/91/33
f 82/98/34 81/99/34 72/90/34 71/89/34
f 83/100/2 84/101/2 85/102/2 86/103/2
f 84/101/11 87/104/11 88/105/11 85/102/11
f 87/104/1 89/106/1 90/107/1 88/105/1
f 89/106/8 83/100/8 86/103/8 90/107/8
f 84/101/12 83/100/12 89/106/12 87/104/12
f 88/105/13 90/107/13 86/103/13 85/102/13
f 91/108/2 92/109/2 93/110/2 94/111/2
f 92/109/11 95/112/11 96/113/11 93/110/11
f 95/112/1 97/114/1 98/115/1 96/113/1
f 97/114/8 91/108/8 94/111/8 98/115/8
f 92/109/12 91/108/12 97/114/12 95/112/12
f 96/113/13 98/115/13 94/111/13 93/110/13
f 99/116/1 100/117/1 101/81/1 102/80/1
f 109/118/35 112/119/35 117/120/35 118/121/35
f 105/122/8 106/123/8 99/116/8 102/80/8 103/79/8 104/78/8
f 108/124/2 105/122/2 104/78/2 107/82/2
f 108/124/11 107/82/11 101/81/11 100/117/11
f 112/119/36 109/118/36 110/125/36 111/126/36
f 113/127/37 114/128/37 115/129/37 110/125/37
f 115/129/38 116/130/38 111/126/38 110/125/38
f 117/120/39 112/119/39 111/126/39 116/130/39
f 119/131/40 118/121/40 115/129/40 114/128/40
f 120/132/41 119/131/41 114/128/41 113/127/41 121/133/41
f 121/133/42 109/118/42 118/121/42 119/131/42 120/132/42
f 122/134/2 123/135/2 124/136/2 125/137/2
f 126/138/43 122/134/43 125/137/43 127/139/43
f 134/140/44 135/141/44 136/142/44 137/143/44
f 129/144/1 126/138/1 127/139/1 128/145/1
f 127/139/45 125/137/45 124/136/45 128/145/45
f 130/146/46 131/147/46 132/148/46 133/149/46
f 129/144/47 128/145/47 124/136/47 123/135/47
f 135/141/48 134/140/48 130/146/48 133/149/48
f 136/142/49 135/141/49 133/149/49 132/148/49
f 122/134/50 126/138/50 129/144/50 123/135/50
f 137/143/51 136/142/51 132/148/51 131/147/51
f 137/143/52 131/147/52 130/146/52 134/140/52
f 141/150/53 138/151/53 139/152/53 140/153/53
f 142/154/54 140/153/54 139/152/54 143/155/54
f 144/156/55 141/150/55 140/153/55 142/154/55
f 145/157/56 144/156/56 142/154/56 143/155/56
f 145/157/57 143/155/57 139/152/57 138/151/57
f 148/158/1 149/159/1 147/62/1 146/65/1
f 138/151/58 141/150/58 144/156/58 145/157/58
f 151/160/8 148/158/8 146/65/8 150/64/8
f 153/161/2 151/160/2 150/64/2 152/63/2
f 148/158/59 151/160/59 153/161/59 149/159/59
f 153/161/11 152/63/11 147/62/11 149/159/11
f 154/162/1 155/163/1 156/164/1 157/165/1
f 158/166/60 157/165/60 156/164/60 159/167/60 160/168/60 161/169/60
f 163/170/61 162/171/61 154/162/61 157/165/61 158/166/61 161/169/61 160/168/61
f 164/172/2 163/170/2 160/168/2 159/167/2
f 163/170/62 164/172/62 165/173/62 155/163/62 154/162/62 162/171/62
f 165/173/8 164/172/8 159/167/8 156/164/8 155/163/8
f 109/118/63 121/133/63 113/127/63 110/125/63
f 118/121/64 117/120/64 116/130/64 115/129/64
f 99/116/65 106/123/65 105/122/65 108/124/65 100/117/65
f 48/53/66 50/52/66 51/58/66 52/60/66
