# Blender v2.83.4 OBJ File: ''
# www.blender.org
mtllib дорога.mtl
o Cube.023_Cube.024
v -1.099189 0.281266 1.513653
v -1.099189 0.283982 -1.516704
v -1.099189 0.328310 -1.516704
v -1.099189 0.321238 1.513653
v -1.282697 0.355405 1.513653
v -1.247374 0.355405 1.513653
v -1.515726 0.334359 1.513653
v -1.512045 0.284324 1.513653
v -1.515726 0.311760 -1.516704
v -1.515726 0.295200 -1.516704
v -1.075609 0.326990 -1.516997
v -1.075533 0.266126 -1.516394
v -1.076989 0.320479 1.513446
v -1.077052 0.377025 1.512948
v -0.659030 0.263600 -1.516480
v -0.660425 0.311114 1.513844
v -0.660503 0.383407 1.459496
v -0.659064 0.324006 -1.516750
v -0.643783 0.260754 -1.543493
v -0.643783 0.267396 1.486864
v -0.643783 0.304350 1.486864
v -0.643783 0.297278 -1.543493
v -0.227246 0.310398 -1.543493
v -0.227246 0.259968 -1.543493
v -0.227246 0.287800 1.486864
v -0.227246 0.256607 1.486864
v 0.245172 0.342078 1.484382
v 0.245172 0.272803 1.484382
v 0.214192 0.278030 -1.589466
v 0.211328 0.342715 -1.545787
v -0.171340 0.279525 1.489034
v -0.205183 0.299076 -1.541135
v -0.205183 0.322885 -1.541135
v -0.171340 0.338234 1.489034
v 0.236762 0.391095 -1.518568
v 0.237318 0.326113 -1.471482
v 0.278136 0.274137 1.510345
v 0.278186 0.332476 1.510941
v 0.643544 0.303073 -1.519220
v 0.694613 0.288279 1.504383
v 0.694652 0.312083 1.504848
v 0.653254 0.386685 -1.524349
v 0.353032 0.397968 -1.520023
v 1.129301 0.290720 1.513653
v 1.129301 0.291357 -1.516704
v 1.129301 0.328310 -1.516704
v 1.129301 0.321238 1.513653
v 0.712763 0.334359 1.513653
v 0.712763 0.310550 1.513653
v 0.712763 0.311760 -1.516704
v 0.712763 0.295200 -1.516704
v 1.566665 0.342057 1.470826
v 1.566665 0.305103 1.470826
v 1.531417 0.278009 -1.559531
v 1.566665 0.342694 -1.559531
v 1.181952 0.278622 1.470048
v 1.150128 0.299055 -1.559531
v 1.150128 0.322864 -1.559531
v 1.150128 0.338214 1.470826
v -1.335337 -2.128972 1.565389
v -1.335337 -2.128972 1.487555
v -1.335337 0.889023 1.487555
v -1.335337 0.889023 1.565389
v -1.257503 -2.128972 1.487555
v -1.257503 0.889023 1.487555
v -1.257503 -2.128972 1.565389
v -1.257503 0.889023 1.565389
v -0.096529 -2.260000 1.571138
v -0.096529 -2.260000 1.493303
v -0.096529 1.879637 1.493303
v -0.096529 1.879637 1.571138
v -0.018695 -2.260000 1.493303
v -0.018695 1.879637 1.493303
v -0.018695 -2.260000 1.571138
v -0.018695 1.879637 1.571138
v 1.320483 -2.265146 1.582634
v 1.320483 -2.265146 1.504800
v 1.320483 0.889023 1.504800
v 1.320483 0.889023 1.582634
v 1.398317 -2.265146 1.504800
v 1.398317 0.889023 1.504800
v 1.398317 -2.265146 1.582634
v 1.398317 0.889023 1.582634
v 0.070991 0.506771 1.506455
v 0.070991 0.506771 1.523542
v -1.491963 0.691624 1.538239
v -1.490443 0.682986 1.506160
v 0.090539 0.683588 1.535787
v -1.468844 0.874380 1.526339
v -1.468844 0.874380 1.515330
v 0.092590 0.698165 1.515889
v 0.092590 0.698165 1.508232
v 0.077020 0.560196 1.503203
v 1.584130 0.678396 1.558843
v -0.214874 0.601328 1.566608
v -0.214950 0.601325 1.549520
v 1.584067 0.678394 1.544731
v -0.223128 0.793816 1.564833
v -0.223162 0.793815 1.557176
v 1.575794 0.870881 1.538666
v 1.576630 0.853780 1.561803
v -1.491715 0.678396 -1.572015
v 0.307289 0.601328 -1.579780
v 0.308078 0.616653 -1.550165
v -1.491652 0.678394 -1.557903
v -1.487948 0.763193 -1.542105
v -1.488647 0.746869 -1.542105
v 0.314574 0.779124 -1.550448
v -1.483378 0.870881 -1.551838
v -1.484215 0.853780 -1.574974
v 0.315543 0.793816 -1.578005
v 0.021425 0.506771 -1.519627
v 0.019704 0.522014 -1.549243
v 1.582859 0.682986 -1.533445
v 1.582859 0.682986 -1.519333
v 1.563735 0.852439 -1.549244
v 0.001876 0.683588 -1.548959
v 1.561259 0.874380 -1.528502
v -0.000175 0.698165 -1.521404
v 0.015395 0.560196 -1.516375
v -1.228068 -2.167481 -1.595807
v -1.228068 -2.167481 -1.517972
v -1.228068 2.210100 -1.517972
v -1.228068 2.210100 -1.595807
v -1.305902 -2.167481 -1.517972
v -1.305902 2.210100 -1.517972
v -1.305902 -2.167481 -1.595807
v -1.305902 2.210100 -1.595807
v 0.188945 -2.249504 -1.584310
v 0.188945 -2.249504 -1.506476
v 0.188945 0.889023 -1.506476
v 0.188945 0.889023 -1.584310
v 0.111110 -2.249504 -1.506476
v 0.111110 0.889023 -1.506476
v 0.111110 -2.249504 -1.584310
v 0.111110 0.889023 -1.584310
v 1.427753 -2.247680 -1.578561
v 1.427753 -2.247680 -1.500727
v 1.427753 0.971094 -1.500727
v 1.427753 0.971094 -1.578561
v 1.349919 -2.247680 -1.500727
v 1.349919 0.971094 -1.500727
v 1.349919 -2.247680 -1.578561
v 1.349919 0.971094 -1.578561
vt 0.910640 0.523226
vt 0.910640 0.523226
vt 0.910640 0.523226
vt 0.910640 0.523226
vt 0.910640 0.523226
vt 0.910640 0.523226
vt 0.910640 0.523226
vt 0.910640 0.523226
vt 0.910640 0.523226
vt 0.910640 0.523226
vt 0.910640 0.523226
vt 0.910640 0.523226
vt 0.910640 0.523226
vt 0.910640 0.523226
vt 0.910640 0.523226
vt 0.910640 0.523226
vt 0.910640 0.523226
vt 0.910640 0.523226
vt 0.913127 0.549522
vt 0.913127 0.549522
vt 0.913127 0.549522
vt 0.913127 0.549522
vt 0.910640 0.523226
vt 0.910640 0.523226
vt 0.910640 0.523226
vt 0.910640 0.523226
vt 0.910640 0.523226
vt 0.910640 0.523226
vt 0.910640 0.523226
vt 0.910640 0.523226
vt 0.910640 0.523226
vt 0.910640 0.523226
vt 0.910640 0.523226
vt 0.910640 0.523226
vt 0.910640 0.523226
vt 0.910640 0.523226
vt 0.910640 0.523226
vt 0.910640 0.523226
vt 0.910640 0.523226
vt 0.910640 0.523226
vt 0.910640 0.523226
vt 0.910640 0.523226
vt 0.910640 0.523226
vt 0.910640 0.523226
vt 0.910640 0.523226
vt 0.910640 0.523226
vt 0.910640 0.523226
vt 0.910640 0.523226
vt 0.910640 0.523226
vt 0.910640 0.523226
vt 0.910640 0.523226
vt 0.910640 0.523226
vt 0.910640 0.523226
vt 0.910640 0.523226
vt 0.910640 0.523226
vt 0.910640 0.523226
vt 0.910640 0.523226
vt 0.910640 0.523226
vt 0.910640 0.523226
vt 0.910640 0.523226
vt 0.910640 0.523226
vt 0.910640 0.523226
vt 0.910640 0.523226
vt 0.873020 0.593590
vt 0.873020 0.593590
vt 0.873020 0.593590
vt 0.873020 0.593590
vt 0.873020 0.593590
vt 0.873020 0.593590
vt 0.873020 0.593590
vt 0.873020 0.593590
vt 0.873020 0.593590
vt 0.873020 0.593590
vt 0.873020 0.593590
vt 0.873020 0.593590
vt 0.873020 0.593590
vt 0.873020 0.593590
vt 0.873020 0.593590
vt 0.873020 0.593590
vt 0.873020 0.593590
vt 0.873020 0.593590
vt 0.873020 0.593590
vt 0.873020 0.593590
vt 0.873020 0.593590
vt 0.873020 0.593590
vt 0.873020 0.593590
vt 0.873020 0.593590
vt 0.913127 0.549522
vt 0.913127 0.549522
vt 0.913127 0.549522
vt 0.913127 0.549522
vt 0.913127 0.549522
vt 0.913127 0.549522
vt 0.913127 0.549522
vt 0.913127 0.549522
vt 0.913127 0.549522
vt 0.913127 0.549522
vt 0.913127 0.549522
vt 0.913127 0.549522
vt 0.913127 0.549522
vt 0.913127 0.549522
vt 0.913127 0.549522
vt 0.913127 0.549522
vt 0.913127 0.549522
vt 0.913127 0.549522
vt 0.913127 0.549522
vt 0.913127 0.549522
vt 0.913127 0.549522
vt 0.913127 0.549522
vt 0.913127 0.549522
vt 0.913127 0.549522
vt 0.913127 0.549522
vt 0.913127 0.549522
vt 0.913127 0.549522
vt 0.913127 0.549522
vt 0.913127 0.549522
vt 0.913127 0.549522
vt 0.913127 0.549522
vt 0.913127 0.549522
vt 0.913127 0.549522
vt 0.873020 0.593590
vt 0.873020 0.593590
vt 0.873020 0.593590
vt 0.873020 0.593590
vt 0.873020 0.593590
vt 0.873020 0.593590
vt 0.873020 0.593590
vt 0.873020 0.593590
vt 0.873020 0.593590
vt 0.873020 0.593590
vt 0.873020 0.593590
vt 0.873020 0.593590
vt 0.873020 0.593590
vt 0.873020 0.593590
vt 0.873020 0.593590
vt 0.873020 0.593590
vt 0.873020 0.593590
vt 0.873020 0.593590
vt 0.873020 0.593590
vt 0.873020 0.593590
vt 0.873020 0.593590
vt 0.873020 0.593590
vt 0.873020 0.593590
vt 0.873020 0.593590
vn 1.0000 0.0000 0.0000
vn -0.0052 0.9998 -0.0182
vn 0.0000 0.0000 1.0000
vn -0.9985 -0.0552 0.0007
vn -0.0041 1.0000 -0.0077
vn -0.0000 0.0000 -1.0000
vn -0.0172 -0.9998 -0.0022
vn -1.0000 -0.0012 -0.0005
vn -0.0143 -0.9998 0.0168
vn 1.0000 0.0010 0.0005
vn 0.0599 0.3910 0.9184
vn 0.0421 0.9980 -0.0473
vn 0.0001 -0.0072 -1.0000
vn -1.0000 0.0000 0.0000
vn 0.0041 1.0000 0.0026
vn -0.0139 -0.9999 0.0005
vn 0.9996 0.0248 -0.0106
vn -0.0334 -0.9994 -0.0037
vn -0.0562 0.4404 -0.8960
vn -0.9999 0.0000 0.0112
vn -0.0284 0.9996 -0.0021
vn 0.0301 0.9993 0.0229
vn 0.0112 0.0000 0.9999
vn -0.9999 0.0011 0.0137
vn -0.0115 -0.9999 -0.0109
vn 0.0144 -0.0129 0.9998
vn 0.9957 -0.0911 -0.0166
vn -0.0284 0.9996 -0.0024
vn -0.0695 -0.3105 -0.9480
vn -0.0284 -0.9996 0.0024
vn 0.9448 -0.3277 -0.0041
vn 0.0071 -1.0000 0.0010
vn -0.9343 -0.3565 0.0046
vn -0.0041 1.0000 -0.0026
vn -0.0007 -0.0083 1.0000
vn 0.0000 1.0000 0.0000
vn 0.0000 -1.0000 0.0000
vn -0.1124 -0.9793 0.1686
vn 0.0015 -0.0011 1.0000
vn -0.9913 0.1180 -0.0586
vn 0.1071 0.9281 0.3565
vn -0.0001 0.0286 -0.9996
vn 0.0032 0.0043 -1.0000
vn 0.0000 0.0000 0.0000
vn -0.9991 -0.0428 0.0044
vn -0.0304 0.8735 0.4859
vn 0.0031 -0.0031 1.0000
vn -0.0364 -0.9429 0.3311
vn 0.0011 -0.0163 0.9999
vn -0.9991 0.0428 0.0045
vn 0.9991 -0.0415 0.0036
vn -0.0031 -0.0031 -1.0000
vn 0.1029 -0.9380 -0.3310
vn 0.0098 -0.0457 -0.9989
vn 0.9937 0.1121 -0.0000
vn 0.0001 0.0286 0.9996
vn -0.0888 0.7905 -0.6060
vn -0.9938 -0.1111 -0.0066
vn 0.9937 -0.1118 0.0084
vn 0.0428 -0.9991 -0.0000
usemtl Материал.008
s 1
f 1/1/1 2/2/1 3/3/1 4/4/1
f 11/5/2 14/6/2 17/7/2 18/8/2
f 8/9/3 1/1/3 4/4/3 6/10/3 5/11/3 7/12/3
f 10/13/4 8/9/4 7/12/4 9/14/4
f 6/10/5 4/4/5 3/3/5 9/14/5 7/12/5 5/11/5
f 3/3/6 2/2/6 10/13/6 9/14/6
f 2/2/7 1/1/7 8/9/7 10/13/7
f 14/6/8 11/5/8 12/15/8 13/16/8
f 15/17/9 16/18/9 13/16/9 12/15/9
f 18/8/10 17/7/10 16/18/10 15/17/10
f 16/18/11 17/7/11 14/6/11 13/16/11
f 111/19/12 110/20/12 109/21/12 108/22/12
f 18/8/13 15/17/13 12/15/13 11/5/13
f 19/23/14 20/24/14 21/25/14 22/26/14
f 25/27/15 23/28/15 22/26/15 21/25/15
f 24/29/6 19/23/6 22/26/6 23/28/6
f 26/30/1 24/29/1 23/28/1 25/27/1
f 21/25/3 20/24/3 26/30/3 25/27/3
f 20/24/16 19/23/16 24/29/16 26/30/16
f 30/31/17 27/32/17 28/33/17 29/34/17
f 31/35/18 32/36/18 29/34/18 28/33/18
f 33/37/19 30/31/19 29/34/19 32/36/19
f 34/38/20 33/37/20 32/36/20 31/35/20
f 27/32/21 30/31/21 33/37/21 34/38/21
f 35/39/22 38/40/22 41/41/22 42/42/22 43/43/22
f 34/38/23 31/35/23 28/33/23 27/32/23
f 38/40/24 35/39/24 36/44/24 37/45/24
f 39/46/25 40/47/25 37/45/25 36/44/25
f 41/41/26 38/40/26 37/45/26 40/47/26
f 42/42/27 41/41/27 40/47/27 39/46/27
f 52/48/28 55/49/28 58/50/28 59/51/28
f 43/43/29 42/42/29 39/46/29 36/44/29 35/39/29
f 44/52/1 45/53/1 46/54/1 47/55/1
f 49/56/3 44/52/3 47/55/3 48/57/3
f 51/58/14 49/56/14 48/57/14 50/59/14
f 46/54/6 45/53/6 51/58/6 50/59/6
f 44/52/30 49/56/30 51/58/30 45/53/30
f 55/49/31 52/48/31 53/60/31 54/61/31
f 56/62/32 57/63/32 54/61/32 53/60/32
f 58/50/6 55/49/6 54/61/6 57/63/6
f 59/51/33 58/50/33 57/63/33 56/62/33
f 46/54/34 50/59/34 48/57/34 47/55/34
f 52/48/35 59/51/35 56/62/35 53/60/35
f 60/64/1 61/65/1 62/66/1 63/67/1
f 61/65/3 64/68/3 65/69/3 62/66/3
f 64/68/14 66/70/14 67/71/14 65/69/14
f 66/70/6 60/64/6 63/67/6 67/71/6
f 61/65/36 60/64/36 66/70/36 64/68/36
f 65/69/37 67/71/37 63/67/37 62/66/37
f 68/72/1 69/73/1 70/74/1 71/75/1
f 69/73/3 72/76/3 73/77/3 70/74/3
f 72/76/14 74/78/14 75/79/14 73/77/14
f 74/78/6 68/72/6 71/75/6 75/79/6
f 69/73/36 68/72/36 74/78/36 72/76/36
f 73/77/37 75/79/37 71/75/37 70/74/37
f 76/80/1 77/81/1 78/82/1 79/83/1
f 77/81/3 80/84/3 81/85/3 78/82/3
f 80/84/14 82/86/14 83/87/14 81/85/14
f 82/86/6 76/80/6 79/83/6 83/87/6
f 77/81/36 76/80/36 82/86/36 80/84/36
f 81/85/37 83/87/37 79/83/37 78/82/37
f 87/88/38 84/89/38 85/90/38 86/91/38
f 88/92/39 89/93/39 86/91/39 85/90/39
f 90/94/40 87/88/40 86/91/40 89/93/40
f 92/95/41 90/94/41 89/93/41 88/92/41 91/96/41
f 84/89/42 87/88/42 90/94/42 92/95/42 93/97/42
f 96/98/43 99/99/43 100/100/43 101/101/43 94/102/44 97/103/44
f 95/104/45 98/105/45 99/99/45 96/98/45
f 98/105/46 101/101/46 100/100/46 99/99/46
f 94/102/47 101/101/47 98/105/47 95/104/47
f 102/106/48 103/107/48 104/108/48 105/109/48
f 108/22/49 109/21/49 106/110/49 107/111/49 105/109/49 104/108/49
f 110/20/50 102/106/50 105/109/50 107/111/50 106/110/50 109/21/50
f 103/107/51 111/19/51 108/22/51 104/108/51
f 103/107/52 102/106/52 110/20/52 111/19/52
f 115/112/53 112/113/53 113/114/53 114/115/53
f 117/116/54 116/117/54 114/115/54 113/114/54
f 118/118/55 115/112/55 114/115/55 116/117/55
f 118/118/56 119/119/56 120/120/56 112/113/56 115/112/56
f 119/119/57 118/118/57 116/117/57 117/116/57
f 120/120/58 119/119/58 117/116/58 113/114/58 112/113/58
f 121/121/14 122/122/14 123/123/14 124/124/14
f 122/122/6 125/125/6 126/126/6 123/123/6
f 125/125/1 127/127/1 128/128/1 126/126/1
f 127/127/3 121/121/3 124/124/3 128/128/3
f 122/122/36 121/121/36 127/127/36 125/125/36
f 126/126/37 128/128/37 124/124/37 123/123/37
f 129/129/14 130/130/14 131/131/14 132/132/14
f 130/130/6 133/133/6 134/134/6 131/131/6
f 133/133/1 135/135/1 136/136/1 134/134/1
f 135/135/3 129/129/3 132/132/3 136/136/3
f 130/130/36 129/129/36 135/135/36 133/133/36
f 134/134/37 136/136/37 132/132/37 131/131/37
f 137/137/14 138/138/14 139/139/14 140/140/14
f 138/138/6 141/141/6 142/142/6 139/139/6
f 141/141/1 143/143/1 144/144/1 142/142/1
f 143/143/3 137/137/3 140/140/3 144/144/3
f 138/138/36 137/137/36 143/143/36 141/141/36
f 142/142/37 144/144/37 140/140/37 139/139/37
f 84/89/59 93/97/59 92/95/59 91/96/59 88/92/59 85/90/59
f 96/98/60 97/103/60 94/102/60 95/104/60
