# Blender v2.83.4 OBJ File: ''
# www.blender.org
mtllib бочка_правый_низ.mtl
o Цилиндр.002_Цилиндр.004
v 11.915958 1.214049 -0.432084
v 11.489857 1.214049 -0.546598
v 11.484987 1.212978 -0.564825
v 11.929310 1.212978 -0.445414
v 11.291513 1.214049 0.191433
v 11.717615 1.214049 0.305947
v 11.722485 1.212978 0.324174
v 12.029838 1.214049 -0.005811
v 12.048059 1.212978 -0.000915
v 11.175951 1.265224 -0.235291
v 11.290280 1.265224 0.192664
v 11.250294 1.264153 -0.215312
v 11.344754 1.264153 0.138272
v 11.344754 0.569801 0.138272
v 11.250294 0.569801 -0.215312
v 11.177634 1.214049 -0.234839
v 11.159413 1.212978 -0.239736
v 11.489407 1.265224 -0.548281
v 11.901967 0.326773 -0.418113
v 12.010744 0.326773 -0.010943
v 12.086602 0.987802 0.009444
v 12.056365 1.130241 0.001318
v 11.724705 1.130241 0.332485
v 11.732786 0.987802 0.362734
v 11.957553 0.987802 -0.473615
v 11.935396 1.130241 -0.451492
v 11.474686 0.987802 -0.603384
v 11.482767 1.130241 -0.573135
v 11.120870 0.987802 -0.250094
v 11.151107 1.130241 -0.241968
v 11.249919 0.987802 0.232965
v 11.272076 1.130241 0.210842
v 11.718444 0.377216 0.309051
v 11.724705 0.430447 0.332485
v 11.272076 0.430447 0.210842
v 11.289240 0.377216 0.193703
v 11.151107 0.430447 -0.241968
v 11.174532 0.377216 -0.235673
v 11.482767 0.430447 -0.573135
v 11.489028 0.377216 -0.549701
v 11.935396 0.430447 -0.451492
v 11.918232 0.377216 -0.434353
v 12.056365 0.430447 0.001318
v 12.032940 0.377216 -0.004978
v 11.249919 0.904263 0.232965
v 11.732786 0.904263 0.362734
v 11.739482 0.910568 0.387800
v 11.231560 0.910568 0.251297
v 11.732786 0.655415 0.362734
v 11.249919 0.655415 0.232965
v 11.739482 0.998442 0.387800
v 12.111658 0.998442 0.016177
v 11.120870 0.904263 -0.250094
v 11.120870 0.655415 -0.250094
v 11.957553 0.655415 -0.473615
v 12.086602 0.655415 0.009444
v 12.111658 0.648808 0.016177
v 11.975912 0.648808 -0.491947
v 11.474686 0.904263 -0.603384
v 11.474686 0.655415 -0.603384
v 11.732786 0.583516 0.362734
v 12.086602 0.583516 0.009444
v 11.739482 0.573178 0.387800
v 11.957553 0.904263 -0.473615
v 11.231560 0.648808 0.251297
v 11.739482 0.648808 0.387800
v 12.086602 0.904263 0.009444
v 11.467990 0.910568 -0.628450
v 11.975912 0.910568 -0.491947
v 11.467990 0.998442 -0.628450
v 11.467990 0.648808 -0.628450
v 11.249919 0.583516 0.232965
v 11.231560 0.573178 0.251297
v 11.095813 0.998442 -0.256828
v 11.957553 0.583516 -0.473615
v 11.474686 0.583516 -0.603384
v 11.120870 0.583516 -0.250094
v 11.698196 1.264153 0.233259
v 11.509275 1.264153 -0.473909
v 11.862718 1.264153 -0.378922
v 11.957178 1.264153 -0.025338
v 11.698196 0.569801 0.233259
v 11.957178 0.569801 -0.025338
v 11.862718 0.569801 -0.378922
v 11.509275 0.569801 -0.473909
v 11.484538 0.378203 -0.566507
v 11.157732 0.378203 -0.240188
v 11.913640 0.325786 -0.429768
v 11.930542 0.378203 -0.446644
v 12.049740 0.378203 -0.000463
v 12.026673 0.325786 -0.006662
v 11.276930 0.378203 0.205995
v 11.722934 0.378203 0.325856
v 11.716769 0.325786 0.302781
v 11.490703 0.325786 -0.543431
v 11.180799 0.325786 -0.233988
v 11.293832 0.325786 0.189118
v 11.718065 1.265224 0.307630
v 11.917192 1.265224 -0.433315
v 12.031521 1.265224 -0.005359
v 11.095813 0.573178 -0.256828
v 11.467990 0.573178 -0.628450
v 11.975912 0.573178 -0.491947
v 11.231560 0.998442 0.251297
v 12.111658 0.910568 0.016177
v 11.964272 0.991696 -0.480325
v 11.980501 0.998442 -0.474771
v 11.975912 0.938608 -0.491947
v 11.958743 0.998442 -0.496561
v 12.107340 0.573178 0.000010
v 12.111658 0.623760 0.016177
v 12.099817 0.573178 0.028001
v 12.096646 0.579372 0.012143
v 11.814425 0.742252 -0.512080
v 11.722051 0.788640 -0.536906
v 11.651670 0.877270 -0.555821
v 11.684134 0.769745 -0.547096
v 11.705185 0.777422 -0.513561
v 11.192042 0.459359 -0.068897
v 11.209698 0.502512 0.026811
v 11.211586 0.557632 0.071711
v 11.219423 0.487912 0.053195
v 11.224066 0.493751 0.040822
v 11.120822 0.655403 -0.250107
v 11.152090 0.648808 -0.313021
v 11.095813 0.573228 -0.256828
v 11.116340 0.648808 -0.179995
v 11.291478 1.214046 0.191469
v 11.319644 1.212978 0.215912
v 11.287629 1.253795 0.195311
v 11.267076 1.212978 0.163266
v 11.107739 0.910568 -0.212187
v 11.095813 0.956775 -0.256828
v 11.128510 0.910568 -0.289477
v 11.120822 0.904275 -0.250107
vt 0.889961 0.897797
vt 0.889961 0.897797
vt 0.889961 0.897797
vt 0.889961 0.897797
vt 0.889961 0.897797
vt 0.889961 0.897797
vt 0.889961 0.897797
vt 0.889961 0.897797
vt 0.889961 0.897797
vt 0.889961 0.897797
vt 0.889961 0.897797
vt 0.889961 0.897797
vt 0.889961 0.897797
vt 0.889961 0.897797
vt 0.889961 0.897797
vt 0.922898 0.545771
vt 0.922898 0.545771
vt 0.922898 0.545771
vt 0.922898 0.545771
vt 0.889961 0.897797
vt 0.889961 0.897797
vt 0.889961 0.897797
vt 0.889961 0.897797
vt 0.922898 0.545771
vt 0.922898 0.545771
vt 0.922898 0.545771
vt 0.922898 0.545771
vt 0.922898 0.545771
vt 0.922898 0.545771
vt 0.922898 0.545771
vt 0.922898 0.545771
vt 0.922898 0.545771
vt 0.922898 0.545771
vt 0.922898 0.545771
vt 0.922898 0.545771
vt 0.922898 0.545771
vt 0.922898 0.545771
vt 0.922898 0.545771
vt 0.922898 0.545771
vt 0.922898 0.545771
vt 0.922898 0.545771
vt 0.922898 0.545771
vt 0.922898 0.545771
vt 0.922898 0.545771
vt 0.922898 0.545771
vt 0.922898 0.545771
vt 0.922898 0.545771
vt 0.889961 0.897797
vt 0.889961 0.897797
vt 0.889961 0.897797
vt 0.889961 0.897797
vt 0.922898 0.545771
vt 0.922898 0.545771
vt 0.922898 0.545771
vt 0.922898 0.545771
vt 0.889961 0.897797
vt 0.889961 0.897797
vt 0.889961 0.897797
vt 0.889961 0.897797
vt 0.922898 0.545771
vt 0.922898 0.545771
vt 0.889961 0.897797
vt 0.889961 0.897797
vt 0.889961 0.897797
vt 0.889961 0.897797
vt 0.922898 0.545771
vt 0.922898 0.545771
vt 0.889961 0.897797
vt 0.889961 0.897797
vt 0.889961 0.897797
vt 0.922898 0.545771
vt 0.922898 0.545771
vt 0.922898 0.545771
vt 0.922898 0.545771
vt 0.889961 0.897797
vt 0.889961 0.897797
vt 0.889961 0.897797
vt 0.889961 0.897797
vt 0.922898 0.545771
vt 0.922898 0.545771
vt 0.922898 0.545771
vt 0.889961 0.897797
vt 0.889961 0.897797
vt 0.889961 0.897797
vt 0.889961 0.897797
vt 0.889961 0.897797
vt 0.889961 0.897797
vt 0.889961 0.897797
vt 0.889961 0.897797
vt 0.889961 0.897797
vt 0.889961 0.897797
vt 0.889961 0.897797
vt 0.889961 0.897797
vt 0.889961 0.897797
vt 0.889961 0.897797
vt 0.889961 0.897797
vt 0.889961 0.897797
vt 0.889961 0.897797
vt 0.889961 0.897797
vt 0.889961 0.897797
vt 0.889961 0.897797
vt 0.889961 0.897797
vt 0.922898 0.545771
vt 0.922898 0.545771
vt 0.922898 0.545771
vt 0.922898 0.545771
vt 0.922898 0.545771
vt 0.922898 0.545771
vt 0.922898 0.545771
vt 0.922898 0.545771
vt 0.922898 0.545771
vt 0.889961 0.897797
vt 0.889961 0.897797
vt 0.889961 0.897797
vt 0.889961 0.897797
vt 0.922898 0.545771
vt 0.922898 0.545771
vt 0.922898 0.545771
vt 0.922898 0.545771
vt 0.922898 0.545771
vt 0.922898 0.545771
vt 0.922898 0.545771
vt 0.922898 0.545771
vt 0.922898 0.545771
vt 0.922898 0.545771
vt 0.922898 0.545771
vt 0.922898 0.545771
vt 0.922898 0.545771
vt 0.922898 0.545771
vt 0.889961 0.897797
vt 0.889961 0.897797
vt 0.889961 0.897797
vt 0.889961 0.897797
vt 0.889961 0.897797
vt 0.889961 0.897797
vt 0.889961 0.897797
vt 0.889961 0.897797
vt 0.889961 0.897797
vt 0.889961 0.897797
vt 0.889961 0.897797
vt 0.889961 0.897797
vt 0.889961 0.897797
vt 0.889961 0.897797
vt 0.889961 0.897797
vt 0.889961 0.897797
vt 0.889961 0.897797
vt 0.889961 0.897797
vt 0.889961 0.897797
vt 0.889961 0.897797
vt 0.889961 0.897797
vt 0.889961 0.897797
vt 0.889961 0.897797
vt 0.889961 0.897797
vt 0.889961 0.897797
vt 0.889961 0.897797
vt 0.889961 0.897797
vt 0.889961 0.897797
vt 0.889961 0.897797
vt 0.889961 0.897797
vt 0.889961 0.897797
vt 0.889961 0.897797
vt 0.889961 0.897797
vt 0.889961 0.897797
vt 0.889961 0.897797
vt 0.889961 0.897797
vt 0.889961 0.897797
vt 0.889961 0.897797
vt 0.889961 0.897797
vt 0.889961 0.897797
vt 0.889961 0.897797
vt 0.889961 0.897797
vt 0.889961 0.897797
vt 0.889961 0.897797
vt 0.922898 0.545771
vt 0.922898 0.545771
vt 0.922898 0.545771
vt 0.922898 0.545771
vn -0.0170 -0.9979 0.0632
vn -0.2497 0.2731 0.9290
vn -0.0632 -0.9979 0.0169
vn 0.0113 0.9999 0.0114
vn 0.9661 0.0000 -0.2581
vn -0.9294 0.2731 0.2483
vn 0.0042 0.9999 -0.0155
vn 0.6941 0.1870 0.6951
vn 0.9491 0.1870 -0.2535
vn 0.2550 0.1870 -0.9487
vn -0.6941 0.1870 -0.6951
vn -0.9491 0.1870 0.2535
vn -0.2550 0.1870 0.9487
vn -0.2414 -0.3671 0.8983
vn -0.8987 -0.3671 0.2401
vn -0.6573 -0.3671 -0.6582
vn 0.2414 -0.3671 -0.8983
vn 0.8987 -0.3671 -0.2401
vn 0.6573 -0.3671 0.6582
vn -0.0701 -0.9628 0.2609
vn -0.2595 0.0000 0.9657
vn -0.3024 0.9038 -0.3029
vn -0.9661 -0.0000 0.2581
vn 0.2726 0.9594 -0.0728
vn -0.7066 0.0000 -0.7076
vn 0.2595 0.0000 -0.9657
vn -0.0732 0.9594 0.2724
vn 0.7066 -0.0000 0.7076
vn 0.0701 -0.9628 -0.2609
vn 0.0732 0.9594 -0.2724
vn 0.1085 -0.9085 -0.4037
vn 0.3024 0.9038 0.3029
vn 0.6957 -0.1744 0.6968
vn 0.9513 -0.1744 -0.2541
vn 0.2556 -0.1744 -0.9509
vn -0.6957 -0.1744 -0.6968
vn -0.9513 -0.1744 0.2541
vn -0.2556 -0.1744 0.9509
vn -0.0042 0.9999 0.0155
vn -0.0155 0.9999 0.0041
vn -0.0113 0.9999 -0.0114
vn -0.0000 1.0000 -0.0000
vn 0.6797 0.2731 0.6807
vn 0.9294 0.2731 -0.2483
vn 0.2497 0.2731 -0.9290
vn -0.6797 0.2731 -0.6807
vn -0.9294 0.2730 0.2483
vn 0.0462 0.9979 0.0463
vn 0.7065 -0.0000 0.7077
vn -0.0170 0.9979 0.0631
vn 0.0170 0.9979 -0.0631
vn -0.0462 0.9979 -0.0463
vn 0.0632 0.9979 -0.0169
vn 0.0008 -1.0000 -0.0002
vn 0.0170 -0.9979 -0.0632
vn 0.6797 0.2730 0.6807
vn 0.0462 -0.9979 0.0463
vn -0.0462 -0.9979 -0.0463
vn -0.1993 0.9594 -0.1996
vn -0.4135 0.9038 0.1105
vn -0.2953 -0.9085 -0.2958
vn 0.2610 -0.9628 -0.0697
vn -0.1085 -0.9085 0.4037
vn 0.1993 0.9594 0.1996
vn -0.1909 -0.9628 -0.1912
vn 0.1111 0.9038 -0.4133
vn 0.2953 -0.9085 0.2958
vn 0.1909 -0.9628 0.1912
vn 0.4135 0.9038 -0.1105
vn 0.4038 -0.9085 -0.1079
vn 0.6759 0.2960 -0.6749
vn -0.1111 0.9038 0.4133
vn 0.9115 -0.3305 0.2450
vn -0.4038 -0.9085 0.1079
vn -0.3989 -0.6801 -0.6150
vn 0.6228 0.5810 -0.5240
vn -0.7420 -0.4967 0.4503
vn -0.9050 0.3974 -0.1520
vn -0.9211 0.3006 -0.2475
vn -0.2726 0.9594 0.0728
vn -0.7011 -0.1356 0.7001
vn 0.0632 -0.9979 -0.0169
vn -0.8661 -0.4424 -0.2328
vn -0.2610 -0.9628 0.0697
vn 0.0155 0.9999 -0.0041
usemtl Материал.002
s off
f 1/1/1 2/2/1 3/3/1 4/4/1
f 7/5/2 98/6/2 11/7/2 130/8/2 129/9/2
f 8/10/3 1/1/3 4/4/3 9/11/3
f 12/12/4 79/13/4 18/14/4 10/15/4
f 12/16/5 13/17/5 14/18/5 15/19/5
f 131/20/6 130/8/6 11/7/6 10/15/6 17/21/6
f 11/7/7 98/6/7 78/22/7 13/23/7
f 21/24/8 22/25/8 23/26/8 24/27/8
f 25/28/9 26/29/9 22/25/9 21/24/9
f 27/30/10 28/31/10 26/29/10 25/28/10
f 29/32/11 30/33/11 28/31/11 27/30/11
f 31/34/12 32/35/12 30/33/12 29/32/12
f 24/27/13 23/26/13 32/35/13 31/34/13
f 33/36/14 34/37/14 35/38/14 36/39/14
f 36/39/15 35/38/15 37/40/15 38/41/15
f 38/41/16 37/40/16 39/42/16 40/43/16
f 40/43/17 39/42/17 41/44/17 42/45/17
f 42/45/18 41/44/18 43/46/18 44/47/18
f 44/47/19 43/46/19 34/37/19 33/36/19
f 45/48/20 46/49/20 47/50/20 48/51/20
f 49/52/21 46/53/21 45/54/21 50/55/21
f 21/56/22 24/57/22 51/58/22 52/59/22
f 50/55/23 45/54/23 53/60/23 54/61/23
f 55/62/24 56/63/24 57/64/24 58/65/24
f 54/61/25 53/60/25 59/66/25 60/67/25
f 103/68/5 58/65/5 57/64/5 111/69/5 110/70/5
f 60/67/26 59/66/26 116/71/26 117/72/26 114/73/26 55/74/26
f 49/75/27 50/76/27 65/77/27 66/78/27
f 55/74/5 64/79/5 67/80/5 56/81/5
f 69/82/5 108/83/5 107/84/5 52/59/5 105/85/5
f 56/81/28 67/80/28 46/53/28 49/52/28
f 64/86/29 59/87/29 68/88/29 69/82/29
f 68/88/26 70/89/26 109/90/26 108/83/26 69/82/26
f 60/91/30 55/62/30 58/65/30 71/92/30
f 72/93/31 61/94/31 63/95/31 73/96/31
f 29/97/32 27/98/32 70/89/32 74/99/32
f 48/51/23 104/100/23 74/99/23 133/101/23 132/102/23
f 43/46/33 62/103/33 61/104/33 34/37/33
f 41/44/34 75/105/34 62/103/34 43/46/34
f 39/42/35 76/106/35 75/105/35 41/44/35
f 37/40/36 77/107/36 76/106/36 39/42/36
f 35/38/37 72/108/37 121/109/37 122/110/37 119/111/37 37/40/37
f 34/37/38 61/104/38 72/108/38 35/38/38
f 80/112/39 99/113/39 18/14/39 79/13/39
f 81/114/40 100/115/40 99/113/40 80/112/40
f 78/22/41 98/6/41 100/115/41 81/114/41
f 14/18/42 82/116/42 83/117/42 84/118/42 85/119/42 15/19/42
f 81/120/23 80/121/23 84/118/23 83/117/23
f 79/122/28 12/16/28 15/19/28 85/119/28
f 13/17/26 78/123/26 82/116/26 14/18/26
f 78/123/25 81/120/25 83/117/25 82/116/25
f 80/121/21 79/122/21 85/119/21 84/118/21
f 22/25/43 8/124/43 6/125/43 23/26/43
f 26/29/44 1/126/44 8/124/44 22/25/44
f 28/31/45 2/127/45 1/126/45 26/29/45
f 30/33/46 16/128/46 2/127/46 28/31/46
f 32/35/47 5/129/47 16/128/47 30/33/47
f 23/26/2 6/125/2 5/129/2 32/35/2
f 38/130/48 40/131/48 86/132/48 87/133/48
f 19/134/18 42/135/18 44/136/18 20/137/18
f 42/135/49 19/134/49 88/138/49 89/139/49
f 20/137/26 44/136/26 90/140/26 91/141/26
f 40/131/50 42/135/50 89/139/50 86/132/50
f 33/142/51 36/143/51 92/144/51 93/145/51
f 91/141/19 90/140/19 93/145/19 94/146/19
f 95/147/17 86/132/17 89/139/17 88/138/17
f 96/148/16 87/133/16 86/132/16 95/147/16
f 97/149/15 92/144/15 87/133/15 96/148/15
f 94/146/14 93/145/14 92/144/14 97/149/14
f 44/136/52 33/142/52 93/145/52 90/140/52
f 36/143/53 38/130/53 87/133/53 92/144/53
f 20/137/54 91/141/54 94/146/54 97/149/54 96/148/54 95/147/54 88/138/54 19/134/54
f 5/150/55 6/151/55 7/5/55 129/9/55 128/152/55
f 17/21/46 10/15/46 18/14/46 3/3/46
f 3/3/45 18/14/45 99/113/45 4/4/45
f 4/4/44 99/113/44 100/115/44 9/11/44
f 9/11/56 100/115/56 98/6/56 7/5/56
f 2/2/57 16/153/57 17/21/57 3/3/57
f 6/151/58 8/10/58 9/11/58 7/5/58
f 63/95/21 66/78/21 65/77/21 73/96/21
f 101/154/25 126/155/25 125/156/25 71/92/25 102/157/25
f 54/158/59 60/91/59 71/92/59 125/156/59 124/159/59
f 102/157/26 71/92/26 58/65/26 103/68/26
f 112/160/28 111/69/28 57/64/28 66/78/28 63/95/28
f 47/50/21 51/58/21 104/100/21 48/51/21
f 134/161/25 133/101/25 74/99/25 70/89/25 68/88/25
f 25/162/60 21/56/60 52/59/60 107/84/60 106/163/60
f 105/85/28 52/59/28 51/58/28 47/50/28
f 61/94/61 62/164/61 113/165/61 112/160/61 63/95/61
f 67/166/62 64/86/62 69/82/62 105/85/62
f 73/96/23 65/77/23 127/167/23 126/155/23 101/154/23
f 75/168/63 76/169/63 102/157/63 103/68/63
f 56/63/64 49/75/64 66/78/64 57/64/64
f 59/87/65 53/170/65 135/171/65 134/161/65 68/88/65
f 24/57/66 31/172/66 104/100/66 51/58/66
f 76/169/67 77/173/67 101/154/67 102/157/67
f 46/49/68 67/166/68 105/85/68 47/50/68
f 31/172/69 29/97/69 74/99/69 104/100/69
f 77/173/70 72/93/70 73/96/70 101/154/70
f 106/163/71 107/84/71 108/83/71 109/90/71
f 27/98/72 25/162/72 106/163/72 109/90/72 70/89/72
f 110/70/73 111/69/73 112/160/73 113/165/73
f 62/164/74 75/168/74 103/68/74 110/70/74 113/165/74
f 55/74/26 114/73/26 115/174/26 116/71/26 59/66/26 64/79/26
f 115/174/75 114/73/75 118/175/75 116/71/75
f 118/175/76 114/73/76 117/72/76 116/71/76
f 37/40/37 119/111/37 120/176/37 121/109/37 72/108/37 77/107/37
f 120/176/77 119/111/77 123/177/77 121/109/77
f 123/177/78 119/111/78 122/110/78 121/109/78
f 124/159/79 125/156/79 126/155/79 127/167/79
f 50/76/80 54/158/80 124/159/80 127/167/80 65/77/80
f 128/152/81 129/9/81 130/8/81 131/20/81
f 16/153/82 5/150/82 128/152/82 131/20/82 17/21/82
f 132/102/83 133/101/83 134/161/83 135/171/83
f 53/170/84 45/48/84 48/51/84 132/102/84 135/171/84
f 13/23/85 12/12/85 10/15/85 11/7/85
