# Blender v2.83.4 OBJ File: ''
# www.blender.org
mtllib бочка_правый_верх.mtl
o Цилиндр.006_Цилиндр.001
v 11.184563 2.169182 0.017408
v 11.513430 2.169182 0.311556
v 11.509568 2.168111 0.330023
v 11.166639 2.168111 0.023297
v 12.022909 2.169182 -0.258058
v 11.694042 2.169182 -0.552206
v 11.697904 2.168111 -0.570673
v 12.040833 2.168111 -0.263947
v 11.274869 2.169182 -0.414473
v 11.260807 2.168111 -0.427051
v 11.933901 2.220357 0.174985
v 12.024565 2.220357 -0.258602
v 11.876523 2.219286 0.123665
v 11.951431 2.219286 -0.234571
v 11.951431 1.524934 -0.234572
v 11.876523 1.524934 0.123665
v 11.932602 2.169182 0.173824
v 11.946665 2.168111 0.186401
v 11.513073 2.220357 0.313262
v 11.203346 1.281906 0.011236
v 11.289606 1.281906 -0.401292
v 11.231058 1.942935 -0.453659
v 11.254396 2.085374 -0.432785
v 11.699664 2.085374 -0.579093
v 11.706073 1.942935 -0.609740
v 11.128721 1.942935 0.035756
v 11.158467 2.085374 0.025982
v 11.501399 1.942935 0.369090
v 11.507807 2.085374 0.338443
v 11.976414 1.942935 0.213009
v 11.953075 2.085374 0.192136
v 12.078751 1.942935 -0.276406
v 12.049005 2.085374 -0.266632
v 11.694700 1.332349 -0.555350
v 11.699664 1.385580 -0.579093
v 12.049005 1.385580 -0.266632
v 12.025961 1.332349 -0.259061
v 11.953075 1.385580 0.192135
v 11.934997 1.332349 0.175965
v 11.507808 1.385580 0.338443
v 11.512772 1.332349 0.314700
v 11.158467 1.385580 0.025982
v 11.181511 1.332349 0.018410
v 11.254396 1.385580 -0.432786
v 11.272475 1.332349 -0.416615
v 12.078751 1.859396 -0.276406
v 11.706073 1.859396 -0.609740
v 11.711383 1.865701 -0.635136
v 12.103399 1.865701 -0.284505
v 11.706073 1.610548 -0.609740
v 12.078751 1.610548 -0.276406
v 11.711383 1.953575 -0.635136
v 11.211720 1.953575 -0.470955
v 11.976414 1.859396 0.213009
v 11.976414 1.610548 0.213009
v 11.128721 1.610548 0.035756
v 11.231058 1.610548 -0.453659
v 11.211720 1.603941 -0.470955
v 11.104073 1.603941 0.043855
v 11.501399 1.859396 0.369090
v 11.501399 1.610548 0.369090
v 11.706073 1.538649 -0.609740
v 11.231058 1.538649 -0.453659
v 11.711383 1.528311 -0.635136
v 11.128721 1.859396 0.035756
v 12.103399 1.603941 -0.284505
v 11.711383 1.603941 -0.635136
v 11.231058 1.859396 -0.453659
v 11.496089 1.865701 0.394486
v 11.104073 1.865701 0.043855
v 11.496089 1.953575 0.394486
v 11.496089 1.603941 0.394486
v 12.078751 1.538649 -0.276406
v 12.103399 1.528311 -0.284505
v 11.995751 1.953575 0.230306
v 11.995751 1.865701 0.230306
v 11.128721 1.538649 0.035756
v 11.501399 1.538649 0.369090
v 11.976414 1.538649 0.213009
v 11.678643 2.219286 -0.478561
v 11.528829 2.219286 0.237911
v 11.256041 2.219286 -0.006078
v 11.330949 2.219286 -0.364315
v 11.678643 1.524934 -0.478561
v 11.330949 1.524934 -0.364315
v 11.256041 1.524934 -0.006079
v 11.528829 1.524934 0.237911
v 11.509212 1.333336 0.331727
v 11.947963 1.333336 0.187562
v 11.187676 1.280919 0.016384
v 11.164985 1.333336 0.023840
v 11.259509 1.333336 -0.428211
v 11.277312 1.280919 -0.412288
v 12.042487 1.333336 -0.264491
v 11.698260 1.333336 -0.572377
v 11.693372 1.280919 -0.548998
v 11.514100 1.280919 0.308348
v 11.930160 1.280919 0.171638
v 12.019795 1.280919 -0.257035
v 11.694399 2.220357 -0.553911
v 11.182907 2.220357 0.017952
v 11.273571 2.220357 -0.415635
v 11.995751 1.603941 0.230306
v 11.995751 1.528311 0.230306
v 11.496089 1.528311 0.394486
v 11.104073 1.528311 0.043855
v 12.103399 1.953575 -0.284505
v 11.119700 1.946829 0.038720
v 11.107712 1.953575 0.026452
v 11.104073 1.893741 0.043855
v 11.117324 1.953575 0.055707
v 11.208295 1.528311 -0.454576
v 11.211720 1.578893 -0.470955
v 11.227617 1.528311 -0.476179
v 11.223307 1.534505 -0.460592
v 11.239187 1.697385 0.134560
v 11.310482 1.743773 0.198328
v 11.364802 1.832403 0.246914
v 11.339746 1.724878 0.224503
v 11.336055 1.732555 0.185082
v 11.197821 1.865701 -0.404482
v 11.211720 1.933612 -0.470955
v 11.276237 1.865701 -0.492155
v 11.231022 1.859408 -0.453691
v 11.296109 2.219286 -0.197701
v 11.230700 2.220357 -0.210608
v 11.198257 2.182970 -0.198165
v 11.263521 2.181899 -0.184558
v 11.218169 2.220357 -0.150683
v 11.284962 2.219286 -0.144388
vt 0.889961 0.897797
vt 0.889961 0.897797
vt 0.889961 0.897797
vt 0.889961 0.897797
vt 0.889961 0.897797
vt 0.889961 0.897797
vt 0.889961 0.897797
vt 0.889961 0.897797
vt 0.889961 0.897797
vt 0.889961 0.897797
vt 0.889961 0.897797
vt 0.889961 0.897797
vt 0.889961 0.897797
vt 0.889961 0.897797
vt 0.922898 0.545771
vt 0.922898 0.545771
vt 0.922898 0.545771
vt 0.922898 0.545771
vt 0.889961 0.897797
vt 0.889961 0.897797
vt 0.889961 0.897797
vt 0.889961 0.897797
vt 0.889961 0.897797
vt 0.889961 0.897797
vt 0.922898 0.545771
vt 0.922898 0.545771
vt 0.922898 0.545771
vt 0.922898 0.545771
vt 0.922898 0.545771
vt 0.922898 0.545771
vt 0.922898 0.545771
vt 0.922898 0.545771
vt 0.922898 0.545771
vt 0.922898 0.545771
vt 0.922898 0.545771
vt 0.922898 0.545771
vt 0.922898 0.545771
vt 0.922898 0.545771
vt 0.922898 0.545771
vt 0.922898 0.545771
vt 0.922898 0.545771
vt 0.922898 0.545771
vt 0.922898 0.545771
vt 0.922898 0.545771
vt 0.922898 0.545771
vt 0.922898 0.545771
vt 0.922898 0.545771
vt 0.922898 0.545771
vt 0.889961 0.897797
vt 0.889961 0.897797
vt 0.889961 0.897797
vt 0.889961 0.897797
vt 0.922898 0.545771
vt 0.922898 0.545771
vt 0.922898 0.545771
vt 0.922898 0.545771
vt 0.889961 0.897797
vt 0.889961 0.897797
vt 0.889961 0.897797
vt 0.889961 0.897797
vt 0.922898 0.545771
vt 0.922898 0.545771
vt 0.889961 0.897797
vt 0.889961 0.897797
vt 0.889961 0.897797
vt 0.889961 0.897797
vt 0.922898 0.545771
vt 0.922898 0.545771
vt 0.889961 0.897797
vt 0.889961 0.897797
vt 0.889961 0.897797
vt 0.922898 0.545771
vt 0.922898 0.545771
vt 0.922898 0.545771
vt 0.922898 0.545771
vt 0.889961 0.897797
vt 0.889961 0.897797
vt 0.889961 0.897797
vt 0.889961 0.897797
vt 0.922898 0.545771
vt 0.922898 0.545771
vt 0.922898 0.545771
vt 0.889961 0.897797
vt 0.889961 0.897797
vt 0.889961 0.897797
vt 0.889961 0.897797
vt 0.889961 0.897797
vt 0.889961 0.897797
vt 0.889961 0.897797
vt 0.889961 0.897797
vt 0.889961 0.897797
vt 0.889961 0.897797
vt 0.889961 0.897797
vt 0.889961 0.897797
vt 0.889961 0.897797
vt 0.889961 0.897797
vt 0.889961 0.897797
vt 0.889961 0.897797
vt 0.889961 0.897797
vt 0.889961 0.897797
vt 0.889961 0.897797
vt 0.889961 0.897797
vt 0.922898 0.545771
vt 0.922898 0.545771
vt 0.922898 0.545771
vt 0.922898 0.545771
vt 0.922898 0.545771
vt 0.922898 0.545771
vt 0.889961 0.897797
vt 0.889961 0.897797
vt 0.889961 0.897797
vt 0.889961 0.897797
vt 0.889961 0.897797
vt 0.889961 0.897797
vt 0.922898 0.545771
vt 0.922898 0.545771
vt 0.922898 0.545771
vt 0.922898 0.545771
vt 0.922898 0.545771
vt 0.922898 0.545771
vt 0.922898 0.545771
vt 0.922898 0.545771
vt 0.922898 0.545771
vt 0.922898 0.545771
vt 0.922898 0.545771
vt 0.922898 0.545771
vt 0.922898 0.545771
vt 0.922898 0.545771
vt 0.922898 0.545771
vt 0.922898 0.545771
vt 0.922898 0.545771
vt 0.889961 0.897797
vt 0.889961 0.897797
vt 0.889961 0.897797
vt 0.889961 0.897797
vt 0.889961 0.897797
vt 0.889961 0.897797
vt 0.889961 0.897797
vt 0.889961 0.897797
vt 0.889961 0.897797
vt 0.889961 0.897797
vt 0.889961 0.897797
vt 0.889961 0.897797
vt 0.889961 0.897797
vt 0.889961 0.897797
vt 0.889961 0.897797
vt 0.889961 0.897797
vt 0.889961 0.897797
vt 0.889961 0.897797
vt 0.889961 0.897797
vt 0.889961 0.897797
vt 0.889961 0.897797
vt 0.889961 0.897797
vt 0.889961 0.897797
vt 0.889961 0.897797
vt 0.889961 0.897797
vt 0.889961 0.897797
vt 0.889961 0.897797
vt 0.889961 0.897797
vt 0.889961 0.897797
vt 0.889961 0.897797
vt 0.889961 0.897797
vt 0.889961 0.897797
vt 0.889961 0.897797
vt 0.889961 0.897797
vt 0.889961 0.897797
vt 0.889961 0.897797
vt 0.889961 0.897797
vt 0.889961 0.897797
vt 0.889961 0.897797
vt 0.889961 0.897797
vt 0.922898 0.545771
vt 0.922898 0.545771
vt 0.000000 0.000000
vt 0.000000 0.000000
vt 0.000000 0.000000
vt 0.000000 0.000000
vt 0.000000 0.000000
vt 0.000000 0.000000
vt 0.889961 0.897797
vt 0.889961 0.897797
vn 0.0436 -0.9979 -0.0488
vn -0.0436 -0.9979 0.0488
vn 0.0640 -0.9979 0.0134
vn -0.0050 0.9999 -0.0153
vn -0.9788 0.0000 -0.2047
vn -0.0640 -0.9979 -0.0134
vn -0.0107 0.9999 0.0120
vn -0.3067 0.1870 -0.9333
vn -0.9616 0.1870 -0.2011
vn -0.6549 0.1870 0.7322
vn 0.3067 0.1870 0.9333
vn 0.9616 0.1870 0.2011
vn 0.6549 0.1870 -0.7322
vn 0.6201 -0.3671 -0.6933
vn 0.9105 -0.3671 0.1904
vn 0.2904 -0.3671 0.8837
vn -0.6201 -0.3671 0.6933
vn -0.9105 -0.3671 -0.1904
vn -0.2904 -0.3671 -0.8837
vn 0.1801 -0.9628 -0.2014
vn 0.6667 0.0000 -0.7454
vn 0.1336 0.9038 0.4066
vn 0.9788 -0.0000 0.2047
vn -0.2761 0.9594 -0.0577
vn 0.3122 -0.0000 0.9500
vn -0.6667 0.0000 0.7454
vn 0.1881 0.9594 -0.2103
vn -0.3122 0.0000 -0.9500
vn -0.1801 -0.9628 0.2014
vn -0.1881 0.9594 0.2103
vn -0.2787 -0.9085 0.3116
vn -0.1336 0.9038 -0.4066
vn 0.0843 -0.9628 0.2567
vn -0.3074 -0.1744 -0.9355
vn -0.9638 -0.1744 -0.2015
vn -0.6564 -0.1744 0.7339
vn 0.3074 -0.1744 0.9355
vn 0.9638 -0.1744 0.2015
vn 0.6564 -0.1744 -0.7339
vn 0.0107 0.9999 -0.0120
vn 0.0157 0.9999 0.0033
vn 0.0050 0.9999 0.0153
vn 0.0000 1.0000 0.0000
vn 0.9788 0.0031 0.2047
vn -0.3003 0.2731 -0.9139
vn -0.9416 0.2730 -0.1969
vn -0.6413 0.2731 0.7170
vn 0.3003 0.2731 0.9139
vn 0.9416 0.2730 0.1969
vn 0.6413 0.2730 -0.7170
vn -0.0204 0.9979 -0.0621
vn -0.3121 0.0000 -0.9500
vn 0.0436 0.9979 -0.0487
vn -0.0436 0.9979 0.0487
vn 0.0204 0.9979 0.0621
vn -0.0640 0.9979 -0.0134
vn -0.0008 -1.0000 -0.0002
vn 0.9416 0.2731 0.1969
vn -0.9477 0.2503 -0.1982
vn -0.0204 -0.9979 -0.0621
vn 0.0204 -0.9979 0.0621
vn 0.4189 0.9038 0.0876
vn -0.0843 -0.9628 -0.2567
vn 0.1305 -0.9085 0.3971
vn 0.2761 0.9594 0.0577
vn 0.2787 -0.9084 -0.3116
vn -0.0881 0.9594 -0.2680
vn 0.2645 -0.9628 0.0553
vn -0.2853 0.9038 0.3190
vn -0.1305 -0.9085 -0.3971
vn 0.0881 0.9594 0.2680
vn -0.4189 0.9038 -0.0876
vn -0.4091 -0.9085 -0.0855
vn -0.9075 0.2960 0.2982
vn 0.2853 0.9038 -0.3190
vn -0.7035 -0.3305 -0.6292
vn 0.4091 -0.9085 0.0855
vn 0.0792 -0.6801 0.7288
vn -0.7920 0.5810 0.1873
vn -0.7037 -0.3295 -0.6294
vn -0.2645 -0.9628 -0.0553
vn -0.0157 0.9999 -0.0033
vn 0.0640 0.9979 0.0134
vn -0.1706 0.4486 0.8773
vn 0.1136 0.7288 -0.6753
usemtl Материал.001
s off
f 1/1/1 2/2/1 3/3/1 4/4/1
f 5/5/2 6/6/2 7/7/2 8/8/2
f 9/9/3 1/1/3 4/4/3 10/10/3
f 13/11/4 81/12/4 19/13/4 11/14/4
f 13/15/5 14/16/5 15/17/5 16/18/5
f 17/19/6 5/5/6 8/8/6 18/20/6
f 12/21/7 100/22/7 80/23/7 14/24/7
f 22/25/8 23/26/8 24/27/8 25/28/8
f 26/29/9 27/30/9 23/26/9 22/25/9
f 28/31/10 29/32/10 27/30/10 26/29/10
f 30/33/11 31/34/11 29/32/11 28/31/11
f 32/35/12 33/36/12 31/34/12 30/33/12
f 25/28/13 24/27/13 33/36/13 32/35/13
f 34/37/14 35/38/14 36/39/14 37/40/14
f 37/40/15 36/39/15 38/41/15 39/42/15
f 39/42/16 38/41/16 40/43/16 41/44/16
f 41/44/17 40/43/17 42/45/17 43/46/17
f 43/46/18 42/45/18 44/47/18 45/48/18
f 45/48/19 44/47/19 35/38/19 34/37/19
f 46/49/20 47/50/20 48/51/20 49/52/20
f 50/53/21 47/54/21 46/55/21 51/56/21
f 22/57/22 25/58/22 52/59/22 53/60/22
f 51/56/23 46/55/23 54/61/23 55/62/23
f 56/63/24 57/64/24 58/65/24 59/66/24
f 55/62/25 54/61/25 60/67/25 61/68/25
f 106/69/5 59/66/5 58/65/5 113/70/5 112/71/5
f 61/68/26 60/67/26 118/72/26 119/73/26 116/74/26 56/75/26
f 50/76/27 51/77/27 66/78/27 67/79/27
f 56/75/5 65/80/5 68/81/5 57/82/5
f 123/83/28 122/84/28 53/60/28 52/59/28 48/51/28
f 57/82/28 68/81/28 47/54/28 50/53/28
f 65/85/29 60/86/29 69/87/29 70/88/29
f 69/87/26 71/89/26 111/90/26 110/91/26 70/88/26
f 61/92/30 56/63/30 59/66/30 72/93/30
f 73/94/31 62/95/31 64/96/31 74/97/31
f 30/98/32 28/99/32 71/89/32 75/100/32
f 60/86/33 54/101/33 76/102/33 69/87/33
f 44/47/34 63/103/34 62/104/34 35/38/34
f 42/45/35 77/105/35 63/103/35 44/47/35
f 40/43/36 78/106/36 77/105/36 42/45/36
f 38/41/37 79/107/37 78/106/37 40/43/37
f 36/39/38 73/108/38 79/107/38 38/41/38
f 35/38/39 62/104/39 73/108/39 36/39/39
f 82/109/40 101/110/40 19/13/40 81/12/40
f 83/111/41 102/112/41 126/113/41 125/114/41
f 80/23/42 100/22/42 102/112/42 83/111/42
f 15/17/43 84/115/43 85/116/43 86/117/43 87/118/43 16/18/43
f 83/119/44 125/120/44 128/121/44 130/122/44 82/123/44 86/117/44 85/116/44
f 81/124/28 13/15/28 16/18/28 87/118/28
f 14/16/26 80/125/26 84/115/26 15/17/26
f 80/125/25 83/119/25 85/116/25 84/115/25
f 82/123/21 81/124/21 87/118/21 86/117/21
f 23/26/45 9/126/45 6/127/45 24/27/45
f 27/30/46 1/128/46 9/126/46 23/26/46
f 29/32/47 2/129/47 1/128/47 27/30/47
f 31/34/48 17/130/48 2/129/48 29/32/48
f 33/36/49 5/131/49 17/130/49 31/34/49
f 24/27/50 6/127/50 5/131/50 33/36/50
f 39/132/51 41/133/51 88/134/51 89/135/51
f 20/136/18 43/137/18 45/138/18 21/139/18
f 43/137/52 20/136/52 90/140/52 91/141/52
f 21/139/26 45/138/26 92/142/26 93/143/26
f 41/133/53 43/137/53 91/141/53 88/134/53
f 34/144/54 37/145/54 94/146/54 95/147/54
f 93/143/19 92/142/19 95/147/19 96/148/19
f 97/149/17 88/134/17 91/141/17 90/140/17
f 98/150/16 89/135/16 88/134/16 97/149/16
f 99/151/15 94/146/15 89/135/15 98/150/15
f 96/148/14 95/147/14 94/146/14 99/151/14
f 45/138/55 34/144/55 95/147/55 92/142/55
f 37/145/56 39/132/56 89/135/56 94/146/56
f 21/139/57 93/143/57 96/148/57 99/151/57 98/150/57 97/149/57 90/140/57 20/136/57
f 7/7/50 100/22/50 12/21/50 8/8/50
f 8/8/58 12/21/58 11/14/58 18/20/58
f 18/20/48 11/14/48 19/13/48 3/3/48
f 3/3/47 19/13/47 101/110/47 4/4/47
f 4/4/59 101/110/59 129/152/59 127/153/59 126/113/59 102/112/59 10/10/59
f 10/10/45 102/112/45 100/22/45 7/7/45
f 2/2/60 17/19/60 18/20/60 3/3/60
f 6/6/61 9/9/61 10/10/61 7/7/61
f 64/96/21 67/79/21 66/78/21 74/97/21
f 74/97/23 66/78/23 103/154/23 104/155/23
f 104/155/25 103/154/25 72/93/25 105/156/25
f 105/156/26 72/93/26 59/66/26 106/69/26
f 114/157/28 113/70/28 58/65/28 67/79/28 64/96/28
f 48/51/21 52/59/21 107/158/21 49/52/21
f 49/52/23 107/158/23 75/100/23 76/102/23
f 76/102/25 75/100/25 71/89/25 69/87/25
f 26/159/62 22/57/62 53/60/62 109/160/62 108/161/62
f 47/50/63 68/162/63 124/163/63 123/83/63 48/51/63
f 62/95/64 63/164/64 115/165/64 114/157/64 64/96/64
f 70/88/5 110/91/5 109/160/5 53/60/5 122/84/5 121/166/5
f 51/77/65 55/167/65 103/154/65 66/78/65
f 77/168/66 78/169/66 105/156/66 106/69/66
f 57/64/67 50/76/67 67/79/67 58/65/67
f 54/101/68 46/49/68 49/52/68 76/102/68
f 25/58/69 32/170/69 107/158/69 52/59/69
f 78/169/70 79/171/70 104/155/70 105/156/70
f 55/167/71 61/92/71 72/93/71 103/154/71
f 32/170/72 30/98/72 75/100/72 107/158/72
f 79/171/73 73/94/73 74/97/73 104/155/73
f 108/161/74 109/160/74 110/91/74 111/90/74
f 28/99/75 26/159/75 108/161/75 111/90/75 71/89/75
f 112/71/76 113/70/76 114/157/76 115/165/76
f 63/164/77 77/168/77 106/69/77 112/71/77 115/165/77
f 56/75/26 116/74/26 117/172/26 118/72/26 60/67/26 65/80/26
f 117/172/78 116/74/78 120/173/78 118/72/78
f 120/173/79 116/74/79 119/73/79 118/72/79
f 121/166/80 122/84/80 123/83/80 124/163/80
f 68/162/81 65/85/81 70/88/81 121/166/81 124/163/81
f 14/24/82 13/11/82 11/14/82 12/21/82
f 91/174/83 43/175/83 45/176/83 92/177/83
f 93/178/18 90/179/18 91/174/18 92/177/18
f 125/114/84 126/113/84 127/153/84 128/180/84
f 128/180/85 127/153/85 129/152/85 130/181/85
f 130/181/41 129/152/41 101/110/41 82/109/41
