# Blender v2.91.2 OBJ File: 'Platform3.blend'
# www.blender.org
mtllib Platform3.mtl
o Куб
v -1.500000 -0.050000 1.500000
v -1.500000 0.250000 1.500000
v -1.500000 -0.050000 -1.500000
v -1.500000 0.250000 -1.500000
v 1.500000 -0.050000 1.500000
v 1.500000 0.250000 1.500000
v 1.500000 -0.050000 -1.500000
v 1.500000 0.250000 -1.500000
v 0.000000 -0.050000 -1.450000
v 0.000000 0.250000 -1.450000
v -0.087791 -0.050000 -0.558647
v -0.087791 0.250000 -0.558647
v 0.087791 -0.050000 -1.441353
v 0.087791 0.250000 -1.441353
v -0.172208 -0.050000 -0.584254
v -0.172208 0.250000 -0.584254
v 0.172208 -0.050000 -1.415746
v 0.172208 0.250000 -1.415746
v -0.250007 -0.050000 -0.625839
v -0.250007 0.250000 -0.625839
v 0.250007 -0.050000 -1.374161
v 0.250007 0.250000 -1.374161
v -0.318198 -0.050000 -0.681802
v -0.318198 0.250000 -0.681802
v 0.318198 -0.050000 -1.318198
v 0.318198 0.250000 -1.318198
v -0.374161 -0.050000 -0.749994
v -0.374161 0.250000 -0.749994
v 0.374161 -0.050000 -1.250007
v 0.374161 0.250000 -1.250007
v -0.415746 -0.050000 -0.827793
v -0.415746 0.250000 -0.827793
v 0.415746 -0.050000 -1.172208
v 0.415746 0.250000 -1.172208
v -0.441353 -0.050000 -0.912210
v -0.441353 0.250000 -0.912210
v 0.441353 -0.050000 -1.087791
v 0.441353 0.250000 -1.087791
v -0.450000 -0.050000 -1.000000
v -0.450000 0.250000 -1.000000
v 0.450000 -0.050000 -1.000000
v 0.450000 0.250000 -1.000000
v 0.441353 -0.050000 -0.912209
v 0.441353 0.250000 -0.912209
v -0.441353 -0.050000 -1.087791
v -0.441353 0.250000 -1.087791
v 0.415746 -0.050000 -0.827793
v 0.415746 0.250000 -0.827793
v -0.415746 -0.050000 -1.172208
v -0.415746 0.250000 -1.172208
v 0.374161 -0.050000 -0.749993
v 0.374161 0.250000 -0.749993
v -0.374161 -0.050000 -1.250007
v -0.374161 0.250000 -1.250007
v 0.318198 -0.050000 -0.681802
v 0.318198 0.250000 -0.681802
v -0.318198 -0.050000 -1.318198
v -0.318198 0.250000 -1.318198
v 0.250007 -0.050000 -0.625839
v 0.250007 0.250000 -0.625839
v -0.250006 -0.050000 -1.374162
v -0.250006 0.250000 -1.374162
v 0.172207 -0.050000 -0.584254
v 0.172207 0.250000 -0.584254
v -0.172207 -0.050000 -1.415746
v -0.172207 0.250000 -1.415746
v 0.087791 -0.050000 -0.558647
v 0.087791 0.250000 -0.558647
v -0.000000 -0.050000 -0.550000
v -0.000000 0.250000 -0.550000
v -0.087790 -0.050000 -1.441354
v -0.087790 0.250000 -1.441354
v -1.500000 0.250000 -1.600000
v -1.500000 -0.050000 -1.600000
v 1.500000 -0.050000 -1.600000
v 1.500000 0.250000 -1.600000
v -1.500000 -0.050000 1.600000
v -1.500000 0.250000 1.600000
v 1.500000 0.250000 1.600000
v 1.500000 -0.050000 1.600000
v -1.500000 0.300000 -1.500000
v 1.500000 0.300000 -1.500000
v 1.500000 0.300000 1.500000
v -1.500000 0.300000 1.500000
v -1.500000 0.300000 -1.600000
v 1.500000 0.300000 -1.600000
v 1.500000 0.300000 1.600000
v -1.500000 0.300000 1.600000
vt 0.772388 0.754321
vt 0.772388 0.754321
vt 0.772388 0.754321
vt 0.772388 0.754321
vt 0.766610 0.804617
vt 0.766610 0.804617
vt 0.766610 0.804617
vt 0.766610 0.804617
vt 0.772388 0.754321
vt 0.772388 0.754321
vt 0.772388 0.754321
vt 0.772388 0.754321
vt 0.766610 0.804617
vt 0.766610 0.804617
vt 0.766610 0.804617
vt 0.766610 0.804617
vt 0.762548 0.752490
vt 0.762548 0.752490
vt 0.762548 0.752490
vt 0.762548 0.752490
vt 0.762548 0.752490
vt 0.762548 0.752490
vt 0.762548 0.752490
vt 0.762548 0.752490
vt 0.762548 0.752490
vt 0.762548 0.752490
vt 0.762548 0.752490
vt 0.762548 0.752490
vt 0.762548 0.752490
vt 0.762548 0.752490
vt 0.762548 0.752490
vt 0.762548 0.752490
vt 0.762548 0.752490
vt 0.762548 0.752490
vt 0.762548 0.752490
vt 0.762548 0.752490
vt 0.762548 0.752490
vt 0.762548 0.752490
vt 0.762548 0.752490
vt 0.762548 0.752490
vt 0.762548 0.752490
vt 0.762548 0.752490
vt 0.762548 0.752490
vt 0.762548 0.752490
vt 0.762548 0.752490
vt 0.762548 0.752490
vt 0.762548 0.752490
vt 0.762548 0.752490
vt 0.762548 0.752490
vt 0.762548 0.752490
vt 0.762548 0.752490
vt 0.762548 0.752490
vt 0.762548 0.752490
vt 0.762548 0.752490
vt 0.762548 0.752490
vt 0.762548 0.752490
vt 0.762548 0.752490
vt 0.762548 0.752490
vt 0.762548 0.752490
vt 0.762548 0.752490
vt 0.762548 0.752490
vt 0.762548 0.752490
vt 0.762548 0.752490
vt 0.762548 0.752490
vt 0.762548 0.752490
vt 0.762548 0.752490
vt 0.762548 0.752490
vt 0.762548 0.752490
vt 0.762548 0.752490
vt 0.762548 0.752490
vt 0.762548 0.752490
vt 0.762548 0.752490
vt 0.762548 0.752490
vt 0.762548 0.752490
vt 0.762548 0.752490
vt 0.762548 0.752490
vt 0.762548 0.752490
vt 0.762548 0.752490
vt 0.762548 0.752490
vt 0.762548 0.752490
vt 0.772388 0.754321
vt 0.772388 0.754321
vt 0.772388 0.754321
vt 0.772388 0.754321
vt 0.772388 0.754321
vt 0.772388 0.754321
vt 0.772388 0.754321
vt 0.772388 0.754321
vt 0.772388 0.754321
vt 0.772388 0.754321
vt 0.772388 0.754321
vt 0.772388 0.754321
vt 0.772388 0.754321
vt 0.772388 0.754321
vt 0.772388 0.754321
vt 0.772388 0.754321
vt 0.772388 0.754321
vt 0.772388 0.754321
vt 0.772388 0.754321
vt 0.772388 0.754321
vt 0.772388 0.754321
vt 0.772388 0.754321
vt 0.772388 0.754321
vt 0.772388 0.754321
vt 0.772388 0.754321
vt 0.772388 0.754321
vt 0.772388 0.754321
vt 0.772388 0.754321
vt 0.772388 0.754321
vt 0.772388 0.754321
vt 0.772388 0.754321
vt 0.772388 0.754321
vt 0.772388 0.754321
vt 0.772388 0.754321
vt 0.772388 0.754321
vt 0.772388 0.754321
vt 0.772388 0.754321
vt 0.772388 0.754321
vt 0.772388 0.754321
vt 0.772388 0.754321
vt 0.772388 0.754321
vt 0.772388 0.754321
vt 0.772388 0.754321
vt 0.772388 0.754321
vt 0.772388 0.754321
vt 0.772388 0.754321
vt 0.772388 0.754321
vt 0.772388 0.754321
vt 0.772388 0.754321
vt 0.772388 0.754321
vt 0.772388 0.754321
vt 0.772388 0.754321
vt 0.772388 0.754321
vt 0.772388 0.754321
vt 0.772388 0.754321
vt 0.772388 0.754321
vt 0.772388 0.754321
vt 0.772388 0.754321
vt 0.772388 0.754321
vt 0.772388 0.754321
vt 0.772388 0.754321
vt 0.772388 0.754321
vt 0.772388 0.754321
vt 0.772388 0.754321
vt 0.766610 0.804617
vt 0.766610 0.804617
vt 0.766610 0.804617
vt 0.766610 0.804617
vt 0.766610 0.804617
vt 0.766610 0.804617
vt 0.766610 0.804617
vt 0.766610 0.804617
vt 0.766610 0.804617
vt 0.766610 0.804617
vt 0.766610 0.804617
vt 0.766610 0.804617
vt 0.766610 0.804617
vt 0.766610 0.804617
vt 0.766610 0.804617
vt 0.766610 0.804617
vt 0.750000 0.750000
vt 0.750000 0.750000
vt 0.750000 0.750000
vt 0.750000 0.750000
vn -1.0000 0.0000 0.0000
vn 1.0000 0.0000 0.0000
vn -0.0000 0.0000 1.0000
vn -0.1951 0.0000 0.9808
vn -0.3827 0.0000 0.9239
vn -0.5556 0.0000 0.8315
vn -0.7071 0.0000 0.7071
vn -0.8315 0.0000 0.5556
vn -0.9239 0.0000 0.3827
vn -0.9808 0.0000 0.1951
vn -0.9808 0.0000 -0.1951
vn -0.9239 0.0000 -0.3827
vn -0.8315 0.0000 -0.5556
vn -0.7071 0.0000 -0.7071
vn -0.5556 0.0000 -0.8315
vn -0.3827 0.0000 -0.9239
vn -0.1951 0.0000 -0.9808
vn 0.0000 0.0000 -1.0000
vn 0.1951 0.0000 -0.9808
vn 0.3827 0.0000 -0.9239
vn 0.5556 0.0000 -0.8315
vn 0.7071 0.0000 -0.7071
vn 0.8315 0.0000 -0.5556
vn 0.9239 0.0000 -0.3827
vn 0.9808 0.0000 -0.1951
vn 0.9808 0.0000 0.1951
vn 0.9239 0.0000 0.3827
vn 0.8315 0.0000 0.5556
vn 0.7071 0.0000 0.7071
vn 0.5556 0.0000 0.8315
vn 0.3827 0.0000 0.9239
vn 0.1951 0.0000 0.9808
vn 0.0000 -1.0000 -0.0000
vn 0.0000 1.0000 -0.0000
usemtl Материал
s 1
f 1/1/1 2/2/1 4/3/1 3/4/1
f 8/5/2 7/6/2 75/7/2 76/8/2
f 7/9/2 8/10/2 6/11/2 5/12/2
f 2/13/1 1/14/1 77/15/1 78/16/1
f 10/17/3 9/18/3 13/19/4 14/20/4
f 14/20/4 13/19/4 17/21/5 18/22/5
f 18/22/5 17/21/5 21/23/6 22/24/6
f 22/24/6 21/23/6 25/25/7 26/26/7
f 25/25/7 29/27/8 30/28/8 26/26/7
f 29/27/8 33/29/9 34/30/9 30/28/8
f 33/29/9 37/31/10 38/32/10 34/30/9
f 37/31/10 41/33/1 42/34/1 38/32/10
f 41/33/1 43/35/11 44/36/11 42/34/1
f 43/35/11 47/37/12 48/38/12 44/36/11
f 47/37/12 51/39/13 52/40/13 48/38/12
f 51/39/13 55/41/14 56/42/14 52/40/13
f 55/41/14 59/43/15 60/44/15 56/42/14
f 59/43/15 63/45/16 64/46/16 60/44/15
f 63/45/16 67/47/17 68/48/17 64/46/16
f 67/47/17 69/49/18 70/50/18 68/48/17
f 69/49/18 11/51/19 12/52/19 70/50/18
f 11/51/19 15/53/20 16/54/20 12/52/19
f 15/53/20 19/55/21 20/56/21 16/54/20
f 19/55/21 23/57/22 24/58/22 20/56/21
f 24/58/22 23/57/22 27/59/23 28/60/23
f 28/60/23 27/59/23 31/61/24 32/62/24
f 32/62/24 31/61/24 35/63/25 36/64/25
f 36/64/25 35/63/25 39/65/2 40/66/2
f 40/66/2 39/65/2 45/67/26 46/68/26
f 46/68/26 45/67/26 49/69/27 50/70/27
f 50/70/27 49/69/27 53/71/28 54/72/28
f 54/72/28 53/71/28 57/73/29 58/74/29
f 58/74/29 57/73/29 61/75/30 62/76/30
f 62/76/30 61/75/30 65/77/31 66/78/31
f 66/78/31 65/77/31 71/79/32 72/80/32
f 72/80/32 71/79/32 9/18/3 10/17/3
f 49/81/33 3/4/33 7/9/33 33/82/33 29/83/33 25/84/33 21/85/33 17/86/33 13/87/33 9/88/33 71/89/33 65/90/33 61/91/33 57/92/33 53/93/33
f 33/82/33 7/9/33 5/12/33 1/1/33 3/4/33 49/81/33 45/94/33 39/95/33 35/96/33 31/97/33 27/98/33 23/99/33 19/100/33 15/101/33 11/102/33 69/103/33 67/104/33 63/105/33 59/106/33 55/107/33 51/108/33 47/109/33 43/110/33 41/111/33 37/112/33
f 4/3/34 2/2/34 6/11/34 8/10/34 34/113/34 38/114/34 42/115/34 44/116/34 48/117/34 52/118/34 56/119/34 60/120/34 64/121/34 68/122/34 70/123/34 12/124/34 16/125/34 20/126/34 24/127/34 28/128/34 32/129/34 36/130/34 40/131/34 46/132/34 50/133/34
f 34/113/34 8/10/34 4/3/34 50/133/34 54/134/34 58/135/34 62/136/34 66/137/34 72/138/34 10/139/34 14/140/34 18/141/34 22/142/34 26/143/34 30/144/34
f 74/145/18 73/146/18 76/8/18 75/7/18
f 7/6/33 3/147/33 74/145/33 75/7/33
f 2/13/1 78/16/1 88/148/1 84/149/1
f 3/147/1 4/150/1 73/146/1 74/145/1
f 80/151/3 79/152/3 78/16/3 77/15/3
f 1/14/33 5/153/33 80/151/33 77/15/33
f 79/152/2 6/154/2 83/155/2 87/156/2
f 5/153/2 6/154/2 79/152/2 80/151/2
f 81/157/34 82/158/34 86/159/34 85/160/34
f 83/155/34 84/149/34 88/148/34 87/156/34
f 76/8/18 73/146/18 85/160/18 86/159/18
f 78/16/3 79/152/3 87/156/3 88/148/3
f 6/161/18 2/162/18 84/163/18 83/164/18
f 73/146/1 4/150/1 81/157/1 85/160/1
f 8/5/2 76/8/2 86/159/2 82/158/2
f 4/150/3 8/5/3 82/158/3 81/157/3
