# Blender v2.91.2 OBJ File: 'Platform1.blend'
# www.blender.org
mtllib Platform1.mtl
o Куб
v -1.500000 -0.050000 1.500000
v -1.500000 0.250000 1.500000
v -1.500000 -0.050000 -1.500000
v -1.500000 0.250000 -1.500000
v 1.500000 -0.050000 1.500000
v 1.500000 0.250000 1.500000
v 1.500000 -0.050000 -1.500000
v 1.500000 0.250000 -1.500000
v 0.000000 -0.050000 -0.450000
v 0.000000 0.250000 -0.450000
v -0.087791 -0.050000 0.441353
v -0.087791 0.250000 0.441353
v 0.087791 -0.050000 -0.441353
v 0.087791 0.250000 -0.441353
v -0.172208 -0.050000 0.415746
v -0.172208 0.250000 0.415746
v 0.172208 -0.050000 -0.415746
v 0.172208 0.250000 -0.415746
v -0.250007 -0.050000 0.374161
v -0.250007 0.250000 0.374161
v 0.250007 -0.050000 -0.374161
v 0.250007 0.250000 -0.374161
v -0.318198 -0.050000 0.318198
v -0.318198 0.250000 0.318198
v 0.318198 -0.050000 -0.318198
v 0.318198 0.250000 -0.318198
v -0.374161 -0.050000 0.250006
v -0.374161 0.250000 0.250006
v 0.374161 -0.050000 -0.250007
v 0.374161 0.250000 -0.250007
v -0.415746 -0.050000 0.172207
v -0.415746 0.250000 0.172207
v 0.415746 -0.050000 -0.172208
v 0.415746 0.250000 -0.172208
v 0.441353 -0.050000 -0.087791
v 0.441353 0.250000 -0.087791
v -0.441353 -0.050000 0.087790
v -0.441353 0.250000 0.087790
v 0.450000 -0.050000 -0.000000
v 0.450000 0.250000 -0.000000
v -0.450000 -0.050000 -0.000000
v -0.450000 0.250000 -0.000000
v 0.441353 -0.050000 0.087791
v 0.441353 0.250000 0.087791
v -0.441353 -0.050000 -0.087791
v -0.441353 0.250000 -0.087791
v 0.415746 -0.050000 0.172207
v 0.415746 0.250000 0.172207
v -0.415746 -0.050000 -0.172208
v -0.415746 0.250000 -0.172208
v 0.374161 -0.050000 0.250007
v 0.374161 0.250000 0.250007
v -0.374161 -0.050000 -0.250007
v -0.374161 0.250000 -0.250007
v 0.318198 -0.050000 0.318198
v 0.318198 0.250000 0.318198
v -0.318198 -0.050000 -0.318198
v -0.318198 0.250000 -0.318198
v 0.250007 -0.050000 0.374161
v 0.250007 0.250000 0.374161
v -0.250006 -0.050000 -0.374162
v -0.250006 0.250000 -0.374162
v 0.172207 -0.050000 0.415746
v 0.172207 0.250000 0.415746
v -0.172207 -0.050000 -0.415746
v -0.172207 0.250000 -0.415746
v 0.087791 -0.050000 0.441353
v 0.087791 0.250000 0.441353
v -0.087790 -0.050000 -0.441353
v -0.087790 0.250000 -0.441353
v -0.000000 -0.050000 0.450000
v -0.000000 0.250000 0.450000
v -1.500000 0.250000 -1.600000
v -1.500000 -0.050000 -1.600000
v 1.500000 -0.050000 -1.600000
v 1.500000 0.250000 -1.600000
v -1.500000 -0.050000 1.600000
v -1.500000 0.250000 1.600000
v 1.500000 0.250000 1.600000
v 1.500000 -0.050000 1.600000
v -1.500000 0.300000 -1.500000
v 1.500000 0.300000 -1.500000
v 1.500000 0.300000 1.500000
v -1.500000 0.300000 1.500000
v -1.500000 0.300000 -1.600000
v 1.500000 0.300000 -1.600000
v 1.500000 0.300000 1.600000
v -1.500000 0.300000 1.600000
vt 0.789575 0.758793
vt 0.789575 0.758793
vt 0.789575 0.758793
vt 0.789575 0.758793
vt 0.757416 0.800150
vt 0.757416 0.800150
vt 0.757416 0.800150
vt 0.757416 0.800150
vt 0.789575 0.758793
vt 0.789575 0.758793
vt 0.789575 0.758793
vt 0.789575 0.758793
vt 0.757416 0.800150
vt 0.757416 0.800150
vt 0.757416 0.800150
vt 0.757416 0.800150
vt 0.747104 0.753616
vt 0.747104 0.753616
vt 0.747104 0.753616
vt 0.747104 0.753616
vt 0.747104 0.753616
vt 0.747104 0.753616
vt 0.747104 0.753616
vt 0.747104 0.753616
vt 0.747104 0.753616
vt 0.747104 0.753616
vt 0.747104 0.753616
vt 0.747104 0.753616
vt 0.747104 0.753616
vt 0.747104 0.753616
vt 0.747104 0.753616
vt 0.747104 0.753616
vt 0.747104 0.753616
vt 0.747104 0.753616
vt 0.747104 0.753616
vt 0.747104 0.753616
vt 0.747104 0.753616
vt 0.747104 0.753616
vt 0.747104 0.753616
vt 0.747104 0.753616
vt 0.747104 0.753616
vt 0.747104 0.753616
vt 0.747104 0.753616
vt 0.747104 0.753616
vt 0.747104 0.753616
vt 0.747104 0.753616
vt 0.747104 0.753616
vt 0.747104 0.753616
vt 0.747104 0.753616
vt 0.747104 0.753616
vt 0.747104 0.753616
vt 0.747104 0.753616
vt 0.747104 0.753616
vt 0.747104 0.753616
vt 0.747104 0.753616
vt 0.747104 0.753616
vt 0.747104 0.753616
vt 0.747104 0.753616
vt 0.747104 0.753616
vt 0.747104 0.753616
vt 0.747104 0.753616
vt 0.747104 0.753616
vt 0.747104 0.753616
vt 0.747104 0.753616
vt 0.747104 0.753616
vt 0.747104 0.753616
vt 0.747104 0.753616
vt 0.747104 0.753616
vt 0.747104 0.753616
vt 0.747104 0.753616
vt 0.747104 0.753616
vt 0.747104 0.753616
vt 0.747104 0.753616
vt 0.747104 0.753616
vt 0.747104 0.753616
vt 0.747104 0.753616
vt 0.747104 0.753616
vt 0.747104 0.753616
vt 0.747104 0.753616
vt 0.747104 0.753616
vt 0.789575 0.758793
vt 0.789575 0.758793
vt 0.789575 0.758793
vt 0.789575 0.758793
vt 0.789575 0.758793
vt 0.789575 0.758793
vt 0.789575 0.758793
vt 0.789575 0.758793
vt 0.789575 0.758793
vt 0.789575 0.758793
vt 0.789575 0.758793
vt 0.789575 0.758793
vt 0.789575 0.758793
vt 0.789575 0.758793
vt 0.789575 0.758793
vt 0.789575 0.758793
vt 0.789575 0.758793
vt 0.789575 0.758793
vt 0.789575 0.758793
vt 0.789575 0.758793
vt 0.789575 0.758793
vt 0.789575 0.758793
vt 0.789575 0.758793
vt 0.789575 0.758793
vt 0.789575 0.758793
vt 0.789575 0.758793
vt 0.789575 0.758793
vt 0.789575 0.758793
vt 0.789575 0.758793
vt 0.789575 0.758793
vt 0.789575 0.758793
vt 0.789575 0.758793
vt 0.789575 0.758793
vt 0.789575 0.758793
vt 0.789575 0.758793
vt 0.789575 0.758793
vt 0.789575 0.758793
vt 0.789575 0.758793
vt 0.789575 0.758793
vt 0.789575 0.758793
vt 0.789575 0.758793
vt 0.789575 0.758793
vt 0.789575 0.758793
vt 0.789575 0.758793
vt 0.789575 0.758793
vt 0.789575 0.758793
vt 0.789575 0.758793
vt 0.789575 0.758793
vt 0.789575 0.758793
vt 0.789575 0.758793
vt 0.789575 0.758793
vt 0.789575 0.758793
vt 0.789575 0.758793
vt 0.789575 0.758793
vt 0.789575 0.758793
vt 0.789575 0.758793
vt 0.789575 0.758793
vt 0.789575 0.758793
vt 0.789575 0.758793
vt 0.789575 0.758793
vt 0.789575 0.758793
vt 0.789575 0.758793
vt 0.789575 0.758793
vt 0.789575 0.758793
vt 0.757416 0.800150
vt 0.757416 0.800150
vt 0.757416 0.800150
vt 0.757416 0.800150
vt 0.757416 0.800150
vt 0.757416 0.800150
vt 0.757416 0.800150
vt 0.757416 0.800150
vt 0.757416 0.800150
vt 0.757416 0.800150
vt 0.757416 0.800150
vt 0.757416 0.800150
vt 0.757416 0.800150
vt 0.757416 0.800150
vt 0.757416 0.800150
vt 0.757416 0.800150
vn -1.0000 0.0000 0.0000
vn 1.0000 0.0000 0.0000
vn 0.0000 -1.0000 -0.0000
vn -0.0000 0.0000 1.0000
vn -0.1951 0.0000 0.9808
vn -0.3827 0.0000 0.9239
vn -0.5556 0.0000 0.8315
vn -0.7071 0.0000 0.7071
vn -0.8315 0.0000 0.5556
vn -0.9239 0.0000 0.3827
vn -0.9808 0.0000 0.1951
vn -0.9808 0.0000 -0.1951
vn -0.9239 0.0000 -0.3827
vn -0.8315 0.0000 -0.5556
vn -0.7071 0.0000 -0.7071
vn -0.5556 0.0000 -0.8315
vn -0.3827 0.0000 -0.9239
vn -0.1951 0.0000 -0.9808
vn 0.0000 0.0000 -1.0000
vn 0.1951 0.0000 -0.9808
vn 0.3827 0.0000 -0.9239
vn 0.5556 0.0000 -0.8315
vn 0.7071 0.0000 -0.7071
vn 0.8315 0.0000 -0.5556
vn 0.9239 0.0000 -0.3827
vn 0.9808 0.0000 -0.1951
vn 0.9808 0.0000 0.1951
vn 0.9239 0.0000 0.3827
vn 0.8315 0.0000 0.5556
vn 0.7071 0.0000 0.7071
vn 0.5556 0.0000 0.8315
vn 0.3827 0.0000 0.9239
vn 0.1951 0.0000 0.9808
vn 0.0000 1.0000 -0.0000
usemtl Материал
s 1
f 1/1/1 2/2/1 4/3/1 3/4/1
f 8/5/2 7/6/2 75/7/2 76/8/2
f 7/9/2 8/10/2 6/11/2 5/12/2
f 1/13/3 5/14/3 80/15/3 77/16/3
f 10/17/4 9/18/4 13/19/5 14/20/5
f 14/20/5 13/19/5 17/21/6 18/22/6
f 18/22/6 17/21/6 21/23/7 22/24/7
f 22/24/7 21/23/7 25/25/8 26/26/8
f 25/25/8 29/27/9 30/28/9 26/26/8
f 29/27/9 33/29/10 34/30/10 30/28/9
f 33/29/10 35/31/11 36/32/11 34/30/10
f 35/31/11 39/33/1 40/34/1 36/32/11
f 39/33/1 43/35/12 44/36/12 40/34/1
f 43/35/12 47/37/13 48/38/13 44/36/12
f 47/37/13 51/39/14 52/40/14 48/38/13
f 51/39/14 55/41/15 56/42/15 52/40/14
f 55/41/15 59/43/16 60/44/16 56/42/15
f 59/43/16 63/45/17 64/46/17 60/44/16
f 63/45/17 67/47/18 68/48/18 64/46/17
f 67/47/18 71/49/19 72/50/19 68/48/18
f 71/49/19 11/51/20 12/52/20 72/50/19
f 11/51/20 15/53/21 16/54/21 12/52/20
f 15/53/21 19/55/22 20/56/22 16/54/21
f 19/55/22 23/57/23 24/58/23 20/56/22
f 24/58/23 23/57/23 27/59/24 28/60/24
f 28/60/24 27/59/24 31/61/25 32/62/25
f 32/62/25 31/61/25 37/63/26 38/64/26
f 38/64/26 37/63/26 41/65/2 42/66/2
f 42/66/2 41/65/2 45/67/27 46/68/27
f 46/68/27 45/67/27 49/69/28 50/70/28
f 50/70/28 49/69/28 53/71/29 54/72/29
f 57/73/30 58/74/30 54/72/29 53/71/29
f 58/74/30 57/73/30 61/75/31 62/76/31
f 62/76/31 61/75/31 65/77/32 66/78/32
f 66/78/32 65/77/32 69/79/33 70/80/33
f 70/80/33 69/79/33 9/18/4 10/17/4
f 23/81/3 1/1/3 3/4/3 57/82/3 53/83/3 49/84/3 45/85/3 41/86/3 37/87/3 31/88/3 27/89/3
f 57/82/3 3/4/3 7/9/3 5/12/3 1/1/3 23/81/3 19/90/3 15/91/3 11/92/3 71/93/3 67/94/3 63/95/3 59/96/3 55/97/3 51/98/3 47/99/3 43/100/3 39/101/3 35/102/3 33/103/3 29/104/3 25/105/3 21/106/3 17/107/3 13/108/3 9/109/3 69/110/3 65/111/3 61/112/3
f 4/3/34 2/2/34 24/113/34 28/114/34 32/115/34 38/116/34 42/117/34 46/118/34 50/119/34 54/120/34 58/121/34
f 24/113/34 2/2/34 6/11/34 8/10/34 4/3/34 58/121/34 62/122/34 66/123/34 70/124/34 10/125/34 14/126/34 18/127/34 22/128/34 26/129/34 30/130/34 34/131/34 36/132/34 40/133/34 44/134/34 48/135/34 52/136/34 56/137/34 60/138/34 64/139/34 68/140/34 72/141/34 12/142/34 16/143/34 20/144/34
f 74/145/19 73/146/19 76/8/19 75/7/19
f 7/6/3 3/147/3 74/145/3 75/7/3
f 76/8/19 73/146/19 85/148/19 86/149/19
f 3/147/1 4/150/1 73/146/1 74/145/1
f 80/15/4 79/151/4 78/152/4 77/16/4
f 79/151/2 6/153/2 83/154/2 87/155/2
f 5/14/2 6/153/2 79/151/2 80/15/2
f 2/156/1 1/13/1 77/16/1 78/152/1
f 81/157/34 82/158/34 86/149/34 85/148/34
f 83/154/34 84/159/34 88/160/34 87/155/34
f 78/152/4 79/151/4 87/155/4 88/160/4
f 6/153/19 2/156/19 84/159/19 83/154/19
f 73/146/1 4/150/1 81/157/1 85/148/1
f 8/5/2 76/8/2 86/149/2 82/158/2
f 2/156/1 78/152/1 88/160/1 84/159/1
f 4/150/4 8/5/4 82/158/4 81/157/4
