# Blender v2.91.2 OBJ File: 'Money.blend'
# www.blender.org
mtllib Money.mtl
o Цилиндр
v 0.025000 -0.000000 -0.065630
v -0.025000 0.000000 -0.065630
v 0.025000 0.012804 -0.064369
v -0.025000 0.012804 -0.064369
v 0.025000 0.025115 -0.060634
v -0.025000 0.025115 -0.060634
v 0.025000 0.036462 -0.054569
v -0.025000 0.036462 -0.054569
v 0.025000 0.046407 -0.046407
v -0.025000 0.046407 -0.046407
v 0.025000 0.054569 -0.036462
v -0.025000 0.054569 -0.036462
v 0.025000 0.060634 -0.025115
v -0.025000 0.060634 -0.025115
v 0.025000 0.064368 -0.012804
v -0.025000 0.064369 -0.012804
v 0.025000 0.065630 0.000000
v -0.025000 0.065630 -0.000000
v 0.025000 0.064368 0.012804
v -0.025000 0.064369 0.012804
v 0.025000 0.060634 0.025115
v -0.025000 0.060634 0.025115
v 0.025000 0.054569 0.036462
v -0.025000 0.054569 0.036462
v 0.025000 0.046407 0.046407
v -0.025000 0.046407 0.046407
v 0.025000 0.036462 0.054569
v -0.025000 0.036462 0.054569
v 0.025000 0.025115 0.060634
v -0.025000 0.025115 0.060634
v 0.025000 0.012804 0.064369
v -0.025000 0.012804 0.064369
v 0.025000 -0.000000 0.065630
v -0.025000 -0.000000 0.065630
v 0.025000 -0.012804 0.064368
v -0.025000 -0.012804 0.064368
v 0.025000 -0.025115 0.060634
v -0.025000 -0.025115 0.060634
v 0.025000 -0.036462 0.054569
v -0.025000 -0.036462 0.054569
v 0.025000 -0.046407 0.046407
v -0.025000 -0.046407 0.046407
v 0.025000 -0.054569 0.036462
v -0.025000 -0.054569 0.036462
v 0.025000 -0.060634 0.025115
v -0.025000 -0.060634 0.025115
v 0.025000 -0.064369 0.012804
v -0.025000 -0.064369 0.012804
v 0.025000 -0.065630 -0.000000
v -0.025000 -0.065630 -0.000000
v 0.025000 -0.064368 -0.012804
v -0.025000 -0.064368 -0.012804
v 0.025000 -0.060634 -0.025115
v -0.025000 -0.060634 -0.025115
v 0.025000 -0.054569 -0.036462
v -0.025000 -0.054569 -0.036462
v 0.025000 -0.046407 -0.046407
v -0.025000 -0.046407 -0.046407
v 0.025000 -0.036462 -0.054569
v -0.025000 -0.036462 -0.054569
v 0.025000 -0.025115 -0.060634
v -0.025000 -0.025115 -0.060634
v 0.025000 -0.012804 -0.064369
v -0.025000 -0.012804 -0.064369
v 0.025000 -0.000000 -0.075000
v 0.025000 0.014632 -0.073559
v -0.025000 0.014632 -0.073559
v -0.025000 0.000000 -0.075000
v 0.025000 0.028701 -0.069291
v -0.025000 0.028701 -0.069291
v 0.025000 0.041668 -0.062360
v -0.025000 0.041668 -0.062360
v 0.025000 0.053033 -0.053033
v -0.025000 0.053033 -0.053033
v 0.025000 0.062360 -0.041668
v -0.025000 0.062360 -0.041668
v 0.025000 0.069291 -0.028701
v -0.025000 0.069291 -0.028701
v 0.025000 0.073559 -0.014632
v -0.025000 0.073559 -0.014632
v 0.025000 0.075000 -0.000000
v -0.025000 0.075000 -0.000000
v 0.025000 0.073559 0.014632
v -0.025000 0.073559 0.014632
v 0.025000 0.069291 0.028701
v -0.025000 0.069291 0.028701
v 0.025000 0.062360 0.041668
v -0.025000 0.062360 0.041668
v 0.025000 0.053033 0.053033
v -0.025000 0.053033 0.053033
v 0.025000 0.041668 0.062360
v -0.025000 0.041668 0.062360
v 0.025000 0.028701 0.069291
v -0.025000 0.028701 0.069291
v 0.025000 0.014632 0.073559
v -0.025000 0.014632 0.073559
v 0.025000 -0.000000 0.075000
v -0.025000 -0.000000 0.075000
v 0.025000 -0.014632 0.073559
v -0.025000 -0.014632 0.073559
v 0.025000 -0.028701 0.069291
v -0.025000 -0.028701 0.069291
v 0.025000 -0.041668 0.062360
v -0.025000 -0.041668 0.062360
v 0.025000 -0.053033 0.053033
v -0.025000 -0.053033 0.053033
v 0.025000 -0.062360 0.041668
v -0.025000 -0.062360 0.041668
v 0.025000 -0.069291 0.028701
v -0.025000 -0.069291 0.028701
v 0.025000 -0.073559 0.014632
v -0.025000 -0.073559 0.014632
v 0.025000 -0.075000 -0.000000
v -0.025000 -0.075000 -0.000000
v 0.025000 -0.073559 -0.014632
v -0.025000 -0.073559 -0.014632
v 0.025000 -0.069291 -0.028701
v -0.025000 -0.069291 -0.028701
v 0.025000 -0.062360 -0.041668
v -0.025000 -0.062360 -0.041668
v 0.025000 -0.053033 -0.053033
v -0.025000 -0.053033 -0.053033
v 0.025000 -0.041668 -0.062360
v -0.025000 -0.041668 -0.062360
v 0.025000 -0.028701 -0.069291
v -0.025000 -0.028701 -0.069291
v 0.025000 -0.014632 -0.073559
v -0.025000 -0.014632 -0.073559
v 0.018455 -0.000000 -0.065630
v 0.018455 0.012804 -0.064369
v 0.018455 0.025115 -0.060634
v 0.018455 0.036462 -0.054569
v 0.018455 0.046407 -0.046407
v 0.018455 0.054569 -0.036462
v 0.018455 0.060634 -0.025115
v 0.018455 0.064369 -0.012804
v 0.018455 0.065630 -0.000000
v 0.018455 0.064369 0.012804
v 0.018455 0.060634 0.025115
v 0.018455 0.054569 0.036462
v 0.018455 0.046407 0.046407
v 0.018455 0.036462 0.054569
v 0.018455 0.025115 0.060634
v 0.018455 0.012804 0.064369
v 0.018455 -0.000000 0.065630
v 0.018455 -0.012804 0.064368
v 0.018455 -0.025115 0.060634
v 0.018455 -0.036462 0.054569
v 0.018455 -0.046407 0.046407
v 0.018455 -0.054569 0.036462
v 0.018455 -0.060634 0.025115
v 0.018455 -0.064369 0.012804
v 0.018455 -0.065630 -0.000000
v 0.018455 -0.064368 -0.012804
v 0.018455 -0.060634 -0.025115
v 0.018455 -0.054569 -0.036462
v 0.018455 -0.046407 -0.046407
v 0.018455 -0.036462 -0.054569
v 0.018455 -0.025115 -0.060634
v 0.018455 -0.012804 -0.064369
v -0.021141 0.012804 -0.064369
v -0.021141 0.000000 -0.065630
v -0.021141 0.025115 -0.060634
v -0.021141 0.036462 -0.054569
v -0.021141 0.046407 -0.046407
v -0.021141 0.054569 -0.036462
v -0.021141 0.060634 -0.025115
v -0.021141 0.064369 -0.012804
v -0.021141 0.065630 -0.000000
v -0.021141 0.064369 0.012804
v -0.021141 0.060634 0.025115
v -0.021141 0.054569 0.036462
v -0.021141 0.046407 0.046407
v -0.021141 0.036462 0.054569
v -0.021141 0.025115 0.060634
v -0.021141 0.012804 0.064369
v -0.021141 -0.000000 0.065630
v -0.021141 -0.012804 0.064368
v -0.021141 -0.025115 0.060634
v -0.021141 -0.036462 0.054569
v -0.021141 -0.046407 0.046407
v -0.021141 -0.054569 0.036462
v -0.021141 -0.060634 0.025115
v -0.021141 -0.064369 0.012804
v -0.021141 -0.065630 -0.000000
v -0.021141 -0.064368 -0.012804
v -0.021141 -0.060634 -0.025115
v -0.021141 -0.054569 -0.036462
v -0.021141 -0.046407 -0.046407
v -0.021141 -0.036462 -0.054569
v -0.021141 -0.025115 -0.060634
v -0.021141 -0.012804 -0.064369
v 0.018455 0.033900 -0.014909
v 0.018455 0.022896 -0.014909
v 0.018455 0.022896 0.005857
v 0.018455 -0.021654 0.005857
v 0.018455 -0.021654 -0.014377
v 0.018455 -0.034078 -0.014377
v 0.018455 -0.034078 0.019879
v 0.018455 0.033874 0.019879
v 0.024741 0.033900 -0.014909
v 0.024741 0.022896 -0.014909
v 0.024741 0.022896 0.005857
v 0.024741 -0.021654 0.005857
v 0.024741 -0.021654 -0.014377
v 0.024741 -0.034078 -0.014377
v 0.024741 -0.034078 0.019879
v 0.024741 0.033874 0.019879
vt 0.251907 0.965860
vt 0.251907 0.965860
vt 0.251907 0.965860
vt 0.251907 0.965860
vt 0.251907 0.965860
vt 0.251907 0.965860
vt 0.251907 0.965860
vt 0.251907 0.965860
vt 0.251907 0.965860
vt 0.251907 0.965860
vt 0.251907 0.965860
vt 0.251907 0.965860
vt 0.251907 0.965860
vt 0.251907 0.965860
vt 0.251907 0.965860
vt 0.251907 0.965860
vt 0.251907 0.965860
vt 0.251907 0.965860
vt 0.251907 0.965860
vt 0.251907 0.965860
vt 0.251907 0.965860
vt 0.251907 0.965860
vt 0.251907 0.965860
vt 0.251907 0.965860
vt 0.251907 0.965860
vt 0.251907 0.965860
vt 0.251907 0.965860
vt 0.251907 0.965860
vt 0.251907 0.965860
vt 0.251907 0.965860
vt 0.251907 0.965860
vt 0.251907 0.965860
vt 0.251907 0.965860
vt 0.251907 0.965860
vt 0.251907 0.965860
vt 0.251907 0.965860
vt 0.251907 0.965860
vt 0.251907 0.965860
vt 0.251907 0.965860
vt 0.251907 0.965860
vt 0.251907 0.965860
vt 0.251907 0.965860
vt 0.251907 0.965860
vt 0.251907 0.965860
vt 0.251907 0.965860
vt 0.251907 0.965860
vt 0.251907 0.965860
vt 0.251907 0.965860
vt 0.251907 0.965860
vt 0.251907 0.965860
vt 0.251907 0.965860
vt 0.251907 0.965860
vt 0.251907 0.965860
vt 0.251907 0.965860
vt 0.251907 0.965860
vt 0.251907 0.965860
vt 0.251907 0.965860
vt 0.251907 0.965860
vt 0.251907 0.965860
vt 0.251907 0.965860
vt 0.251907 0.965860
vt 0.251907 0.965860
vt 0.232449 0.989967
vt 0.232449 0.989967
vt 0.232449 0.989967
vt 0.232449 0.989967
vt 0.251907 0.965860
vt 0.251907 0.965860
vt 0.232449 0.989967
vt 0.232449 0.989967
vt 0.232449 0.989967
vt 0.232449 0.989967
vt 0.251907 0.965860
vt 0.251907 0.965860
vt 0.251907 0.965860
vt 0.251907 0.965860
vt 0.251907 0.965860
vt 0.251907 0.965860
vt 0.251907 0.965860
vt 0.251907 0.965860
vt 0.251907 0.965860
vt 0.251907 0.965860
vt 0.251907 0.965860
vt 0.251907 0.965860
vt 0.251907 0.965860
vt 0.251907 0.965860
vt 0.251907 0.965860
vt 0.251907 0.965860
vt 0.251907 0.965860
vt 0.251907 0.965860
vt 0.251907 0.965860
vt 0.251907 0.965860
vt 0.251907 0.965860
vt 0.251907 0.965860
vt 0.251907 0.965860
vt 0.251907 0.965860
vt 0.251907 0.965860
vt 0.251907 0.965860
vt 0.251907 0.965860
vt 0.251907 0.965860
vt 0.251907 0.965860
vt 0.251907 0.965860
vt 0.251907 0.965860
vt 0.251907 0.965860
vt 0.251907 0.965860
vt 0.251907 0.965860
vt 0.251907 0.965860
vt 0.251907 0.965860
vt 0.251907 0.965860
vt 0.251907 0.965860
vt 0.251907 0.965860
vt 0.251907 0.965860
vt 0.251907 0.965860
vt 0.251907 0.965860
vt 0.251907 0.965860
vt 0.251907 0.965860
vt 0.251907 0.965860
vt 0.251907 0.965860
vt 0.251907 0.965860
vt 0.251907 0.965860
vt 0.251907 0.965860
vt 0.251907 0.965860
vt 0.251907 0.965860
vt 0.251907 0.965860
vt 0.251907 0.965860
vt 0.251907 0.965860
vt 0.251907 0.965860
vt 0.251907 0.965860
vt 0.251907 0.965860
vt 0.251907 0.965860
vt 0.251907 0.965860
vt 0.251907 0.965860
vt 0.251907 0.965860
vt 0.251907 0.965860
vt 0.251907 0.965860
vt 0.251907 0.965860
vt 0.232449 0.989967
vt 0.232449 0.989967
vt 0.232449 0.989967
vt 0.232449 0.989967
vt 0.232449 0.989967
vt 0.232449 0.989967
vt 0.232449 0.989967
vt 0.232449 0.989967
vt 0.232449 0.989967
vt 0.232449 0.989967
vt 0.232449 0.989967
vt 0.232449 0.989967
vt 0.232449 0.989967
vt 0.232449 0.989967
vt 0.232449 0.989967
vt 0.232449 0.989967
vt 0.232449 0.989967
vt 0.232449 0.989967
vt 0.232449 0.989967
vt 0.232449 0.989967
vt 0.232449 0.989967
vt 0.232449 0.989967
vt 0.232449 0.989967
vt 0.232449 0.989967
vt 0.232449 0.989967
vt 0.232449 0.989967
vt 0.232449 0.989967
vt 0.232449 0.989967
vt 0.232449 0.989967
vt 0.232449 0.989967
vt 0.232449 0.989967
vt 0.232449 0.989967
vt 0.232449 0.989967
vt 0.232449 0.989967
vt 0.232449 0.989967
vt 0.232449 0.989967
vt 0.232449 0.989967
vt 0.232449 0.989967
vt 0.232449 0.989967
vt 0.232449 0.989967
vt 0.232449 0.989967
vt 0.232449 0.989967
vt 0.232449 0.989967
vt 0.232449 0.989967
vt 0.232449 0.989967
vt 0.232449 0.989967
vt 0.232449 0.989967
vt 0.232449 0.989967
vt 0.232449 0.989967
vt 0.232449 0.989967
vt 0.232449 0.989967
vt 0.232449 0.989967
vt 0.232449 0.989967
vt 0.232449 0.989967
vt 0.232449 0.989967
vt 0.232449 0.989967
vt 0.232449 0.989967
vt 0.232449 0.989967
vt 0.232449 0.989967
vt 0.232449 0.989967
vt 0.232449 0.989967
vt 0.232449 0.989967
vt 0.232449 0.989967
vt 0.232449 0.989967
vt 0.232449 0.989967
vt 0.232449 0.989967
vt 0.232449 0.989967
vt 0.232449 0.989967
vt 0.232449 0.989967
vt 0.232449 0.989967
vt 0.232449 0.989967
vt 0.232449 0.989967
vt 0.232449 0.989967
vt 0.232449 0.989967
vt 0.232449 0.989967
vt 0.232449 0.989967
vt 0.232449 0.989967
vt 0.232449 0.989967
vt 0.232449 0.989967
vt 0.232449 0.989967
vt 0.232449 0.989967
vt 0.232449 0.989967
vt 0.232449 0.989967
vt 0.232449 0.989967
vt 0.232449 0.989967
vt 0.232449 0.989967
vt 0.232449 0.989967
vt 0.232449 0.989967
vt 0.232449 0.989967
vt 0.232449 0.989967
vt 0.232449 0.989967
vt 0.232449 0.989967
vt 0.232449 0.989967
vt 0.232449 0.989967
vt 0.232449 0.989967
vt 0.232449 0.989967
vt 0.232449 0.989967
vt 0.232449 0.989967
vt 0.232449 0.989967
vt 0.232449 0.989967
vt 0.232449 0.989967
vt 0.232449 0.989967
vt 0.232449 0.989967
vt 0.232449 0.989967
vt 0.232449 0.989967
vt 0.232449 0.989967
vt 0.232449 0.989967
vt 0.232449 0.989967
vt 0.232449 0.989967
vt 0.232449 0.989967
vt 0.232449 0.989967
vt 0.232449 0.989967
vt 0.232449 0.989967
vt 0.232449 0.989967
vt 0.232449 0.989967
vt 0.232449 0.989967
vt 0.232449 0.989967
vt 0.232449 0.989967
vt 0.232449 0.989967
vt 0.232449 0.989967
vt 0.232449 0.989967
vt 0.232449 0.989967
vt 0.232449 0.989967
vt 0.232449 0.989967
vt 0.232449 0.989967
vt 0.232449 0.989967
vt 0.232449 0.989967
vt 0.232449 0.989967
vt 0.952404 0.151910
vt 0.952404 0.151910
vt 0.952404 0.151910
vt 0.952404 0.151910
vt 0.952404 0.151910
vt 0.952404 0.151910
vt 0.952404 0.151910
vt 0.952404 0.151910
vt 0.952404 0.151910
vt 0.952404 0.151910
vt 0.952404 0.151910
vt 0.952404 0.151910
vt 0.952404 0.151910
vt 0.952404 0.151910
vt 0.952404 0.151910
vt 0.952404 0.151910
vt 0.251907 0.965860
vt 0.251907 0.965860
vt 0.251907 0.965860
vt 0.251907 0.965860
vn 0.0000 0.0980 -0.9952
vn 0.0000 0.2903 -0.9569
vn 0.0000 0.4714 -0.8819
vn 0.0000 0.6344 -0.7730
vn 0.0000 0.7730 -0.6344
vn 0.0000 0.8819 -0.4714
vn 0.0000 0.9569 -0.2903
vn 0.0000 0.9952 -0.0980
vn 0.0000 0.9952 0.0980
vn 0.0000 0.9569 0.2903
vn 0.0000 0.8819 0.4714
vn 0.0000 0.7730 0.6344
vn -0.0000 0.6344 0.7730
vn -0.0000 0.4714 0.8819
vn 0.0000 0.2903 0.9569
vn 0.0000 0.0980 0.9952
vn -0.0000 -0.0980 0.9952
vn -0.0000 -0.2903 0.9569
vn -0.0000 -0.4714 0.8819
vn -0.0000 -0.6344 0.7730
vn -0.0000 -0.7730 0.6344
vn -0.0000 -0.8819 0.4714
vn -0.0000 -0.9569 0.2903
vn -0.0000 -0.9952 0.0980
vn -0.0000 -0.9952 -0.0980
vn -0.0000 -0.9569 -0.2903
vn -0.0000 -0.8819 -0.4714
vn -0.0000 -0.7730 -0.6344
vn 0.0000 -0.6344 -0.7730
vn 0.0000 -0.4714 -0.8819
vn 0.0000 -0.2903 -0.9569
vn -0.0000 -0.0980 -0.9952
vn 1.0000 -0.0000 0.0000
vn -1.0000 0.0000 -0.0000
vn -0.0000 -0.0000 1.0000
vn 0.0000 -0.0000 -1.0000
vn -0.0000 1.0000 0.0008
vn -0.0000 -1.0000 0.0000
vn 0.0000 1.0000 -0.0000
usemtl Материал
s off
f 65/1/1 68/2/1 67/3/1 66/4/1
f 66/4/2 67/3/2 70/5/2 69/6/2
f 69/6/3 70/5/3 72/7/3 71/8/3
f 71/8/4 72/7/4 74/9/4 73/10/4
f 73/10/5 74/9/5 76/11/5 75/12/5
f 75/12/6 76/11/6 78/13/6 77/14/6
f 77/14/7 78/13/7 80/15/7 79/16/7
f 79/16/8 80/15/8 82/17/8 81/18/8
f 81/18/9 82/17/9 84/19/9 83/20/9
f 83/20/10 84/19/10 86/21/10 85/22/10
f 85/22/11 86/21/11 88/23/11 87/24/11
f 87/24/12 88/23/12 90/25/12 89/26/12
f 89/26/13 90/25/13 92/27/13 91/28/13
f 91/28/14 92/27/14 94/29/14 93/30/14
f 93/30/15 94/29/15 96/31/15 95/32/15
f 95/32/16 96/31/16 98/33/16 97/34/16
f 97/34/17 98/33/17 100/35/17 99/36/17
f 99/36/18 100/35/18 102/37/18 101/38/18
f 101/38/19 102/37/19 104/39/19 103/40/19
f 103/40/20 104/39/20 106/41/20 105/42/20
f 105/42/21 106/41/21 108/43/21 107/44/21
f 107/44/22 108/43/22 110/45/22 109/46/22
f 109/46/23 110/45/23 112/47/23 111/48/23
f 111/48/24 112/47/24 114/49/24 113/50/24
f 113/50/25 114/49/25 116/51/25 115/52/25
f 115/52/26 116/51/26 118/53/26 117/54/26
f 117/54/27 118/53/27 120/55/27 119/56/27
f 119/56/28 120/55/28 122/57/28 121/58/28
f 121/58/29 122/57/29 124/59/29 123/60/29
f 123/60/30 124/59/30 126/61/30 125/62/30
f 64/63/15 62/64/15 191/65/15 192/66/15
f 125/62/31 126/61/31 128/67/31 127/68/31
f 127/68/32 128/67/32 68/2/32 65/1/32
f 49/69/9 51/70/9 154/71/9 153/72/9
f 3/73/33 1/74/33 65/1/33 66/4/33
f 2/75/34 4/76/34 67/3/34 68/2/34
f 5/77/33 3/73/33 66/4/33 69/6/33
f 4/76/34 6/78/34 70/5/34 67/3/34
f 7/79/33 5/77/33 69/6/33 71/8/33
f 6/78/34 8/80/34 72/7/34 70/5/34
f 9/81/33 7/79/33 71/8/33 73/10/33
f 8/80/34 10/82/34 74/9/34 72/7/34
f 11/83/33 9/81/33 73/10/33 75/12/33
f 10/82/34 12/84/34 76/11/34 74/9/34
f 13/85/33 11/83/33 75/12/33 77/14/33
f 12/84/34 14/86/34 78/13/34 76/11/34
f 15/87/33 13/85/33 77/14/33 79/16/33
f 14/86/34 16/88/34 80/15/34 78/13/34
f 17/89/33 15/87/33 79/16/33 81/18/33
f 16/88/34 18/90/34 82/17/34 80/15/34
f 19/91/33 17/89/33 81/18/33 83/20/33
f 18/90/34 20/92/34 84/19/34 82/17/34
f 21/93/33 19/91/33 83/20/33 85/22/33
f 20/92/34 22/94/34 86/21/34 84/19/34
f 23/95/33 21/93/33 85/22/33 87/24/33
f 22/94/34 24/96/34 88/23/34 86/21/34
f 25/97/33 23/95/33 87/24/33 89/26/33
f 24/96/34 26/98/34 90/25/34 88/23/34
f 27/99/33 25/97/33 89/26/33 91/28/33
f 26/98/34 28/100/34 92/27/34 90/25/34
f 29/101/33 27/99/33 91/28/33 93/30/33
f 28/100/34 30/102/34 94/29/34 92/27/34
f 31/103/33 29/101/33 93/30/33 95/32/33
f 30/102/34 32/104/34 96/31/34 94/29/34
f 33/105/33 31/103/33 95/32/33 97/34/33
f 32/104/34 34/106/34 98/33/34 96/31/34
f 35/107/33 33/105/33 97/34/33 99/36/33
f 34/106/34 36/108/34 100/35/34 98/33/34
f 37/109/33 35/107/33 99/36/33 101/38/33
f 36/108/34 38/110/34 102/37/34 100/35/34
f 39/111/33 37/109/33 101/38/33 103/40/33
f 38/110/34 40/112/34 104/39/34 102/37/34
f 41/113/33 39/111/33 103/40/33 105/42/33
f 40/112/34 42/114/34 106/41/34 104/39/34
f 43/115/33 41/113/33 105/42/33 107/44/33
f 42/114/34 44/116/34 108/43/34 106/41/34
f 45/117/33 43/115/33 107/44/33 109/46/33
f 44/116/34 46/118/34 110/45/34 108/43/34
f 47/119/33 45/117/33 109/46/33 111/48/33
f 46/118/34 48/120/34 112/47/34 110/45/34
f 49/121/33 47/119/33 111/48/33 113/50/33
f 48/120/34 50/122/34 114/49/34 112/47/34
f 51/123/33 49/121/33 113/50/33 115/52/33
f 50/122/34 52/124/34 116/51/34 114/49/34
f 53/125/33 51/123/33 115/52/33 117/54/33
f 52/124/34 54/126/34 118/53/34 116/51/34
f 55/127/33 53/125/33 117/54/33 119/56/33
f 54/126/34 56/128/34 120/55/34 118/53/34
f 57/129/33 55/127/33 119/56/33 121/58/33
f 56/128/34 58/130/34 122/57/34 120/55/34
f 59/131/33 57/129/33 121/58/33 123/60/33
f 58/130/34 60/132/34 124/59/34 122/57/34
f 61/133/33 59/131/33 123/60/33 125/62/33
f 60/132/34 62/134/34 126/61/34 124/59/34
f 63/135/33 61/133/33 125/62/33 127/68/33
f 62/134/34 64/136/34 128/67/34 126/61/34
f 1/74/33 63/135/33 127/68/33 65/1/33
f 64/136/34 2/75/34 68/2/34 128/67/34
f 129/137/33 130/138/33 131/139/33 132/140/33 133/141/33 134/142/33 135/143/33 193/144/33 194/145/33 195/146/33 196/147/33 197/148/33 198/149/33 155/150/33 156/151/33 157/152/33 158/153/33 159/154/33 160/155/33
f 9/156/21 11/157/21 134/142/21 133/141/21
f 63/158/16 1/159/16 129/137/16 160/155/16
f 23/160/28 25/161/28 141/162/28 140/163/28
f 37/164/3 39/165/3 148/166/3 147/167/3
f 51/70/10 53/168/10 155/150/10 154/71/10
f 11/157/22 13/169/22 135/143/22 134/142/22
f 25/161/29 27/170/29 142/171/29 141/162/29
f 39/165/4 41/172/4 149/173/4 148/166/4
f 53/168/11 55/174/11 156/151/11 155/150/11
f 13/169/23 15/175/23 136/176/23 135/143/23
f 27/170/30 29/177/30 143/178/30 142/171/30
f 41/172/5 43/179/5 150/180/5 149/173/5
f 1/159/17 3/181/17 130/138/17 129/137/17
f 55/174/12 57/182/12 157/152/12 156/151/12
f 15/175/24 17/183/24 137/184/24 136/176/24
f 29/177/31 31/185/31 144/186/31 143/178/31
f 43/179/6 45/187/6 151/188/6 150/180/6
f 3/181/18 5/189/18 131/139/18 130/138/18
f 57/182/13 59/190/13 158/153/13 157/152/13
f 17/183/25 19/191/25 138/192/25 137/184/25
f 31/185/32 33/193/32 145/194/32 144/186/32
f 45/187/7 47/195/7 152/196/7 151/188/7
f 5/189/19 7/197/19 132/140/19 131/139/19
f 59/190/14 61/198/14 159/154/14 158/153/14
f 19/191/26 21/199/26 139/200/26 138/192/26
f 33/193/1 35/201/1 146/202/1 145/194/1
f 47/195/8 49/69/8 153/72/8 152/196/8
f 7/197/20 9/156/20 133/141/20 132/140/20
f 61/198/15 63/158/15 160/155/15 159/154/15
f 21/199/27 23/160/27 140/163/27 139/200/27
f 35/201/2 37/164/2 147/167/2 146/202/2
f 161/203/34 162/204/34 192/66/34 191/65/34 190/205/34 189/206/34 188/207/34 187/208/34 186/209/34 185/210/34 184/211/34 183/212/34 182/213/34 181/214/34 180/215/34 179/216/34 178/217/34 177/218/34 176/219/34 175/220/34 174/221/34 173/222/34 172/223/34 171/224/34 170/225/34 169/226/34 168/227/34 167/228/34 166/229/34 165/230/34 164/231/34 163/232/34
f 24/233/27 22/234/27 171/224/27 172/223/27
f 38/235/2 36/236/2 178/217/2 179/216/2
f 52/237/9 50/238/9 185/210/9 186/209/9
f 12/239/21 10/240/21 165/230/21 166/229/21
f 2/241/16 64/63/16 192/66/16 162/204/16
f 26/242/28 24/233/28 172/223/28 173/222/28
f 40/243/3 38/235/3 179/216/3 180/215/3
f 54/244/10 52/237/10 186/209/10 187/208/10
f 14/245/22 12/239/22 166/229/22 167/228/22
f 28/246/29 26/242/29 173/222/29 174/221/29
f 42/247/4 40/243/4 180/215/4 181/214/4
f 56/248/11 54/244/11 187/208/11 188/207/11
f 16/249/23 14/245/23 167/228/23 168/227/23
f 30/250/30 28/246/30 174/221/30 175/220/30
f 44/251/5 42/247/5 181/214/5 182/213/5
f 4/252/17 2/241/17 162/204/17 161/203/17
f 58/253/12 56/248/12 188/207/12 189/206/12
f 18/254/24 16/249/24 168/227/24 169/226/24
f 32/255/31 30/250/31 175/220/31 176/219/31
f 46/256/6 44/251/6 182/213/6 183/212/6
f 6/257/18 4/252/18 161/203/18 163/232/18
f 60/258/13 58/253/13 189/206/13 190/205/13
f 20/259/25 18/254/25 169/226/25 170/225/25
f 34/260/32 32/255/32 176/219/32 177/218/32
f 48/261/7 46/256/7 183/212/7 184/211/7
f 8/262/19 6/257/19 163/232/19 164/231/19
f 62/64/14 60/258/14 190/205/14 191/65/14
f 22/234/26 20/259/26 170/225/26 171/224/26
f 36/236/1 34/260/1 177/218/1 178/217/1
f 50/238/8 48/261/8 184/211/8 185/210/8
f 10/240/20 8/262/20 164/231/20 165/230/20
f 155/150/33 198/149/33 199/263/33 200/264/33 193/144/33 135/143/33 136/176/33 137/184/33 138/192/33 139/200/33 140/163/33 141/162/33 142/171/33 143/178/33 144/186/33 145/194/33 146/202/33 147/167/33 148/166/33 149/173/33 150/180/33 151/188/33 152/196/33 153/72/33 154/71/33
f 200/265/35 199/266/35 207/267/35 208/268/35
f 208/268/33 207/267/33 206/269/33 205/270/33 204/271/33 203/272/33 202/273/33 201/274/33
f 198/275/36 197/276/36 205/270/36 206/269/36
f 196/277/36 195/278/36 203/272/36 204/271/36
f 194/279/36 193/280/36 201/274/36 202/273/36
f 193/280/37 200/265/37 208/268/37 201/274/37
f 199/266/38 198/275/38 206/269/38 207/267/38
f 197/281/39 196/282/39 204/283/39 205/284/39
f 195/278/38 194/279/38 202/273/38 203/272/38
