# Blender v2.83.4 OBJ File: ''
# www.blender.org
mtllib бочка-от-стола.mtl
o Цилиндр.002_Цилиндр.001
v -0.476128 1.146589 -0.961312
v -0.536530 1.146589 -1.271842
v -0.526323 1.145623 -1.280718
v -0.463338 1.145623 -0.956910
v -1.074384 1.146589 -1.167222
v -1.013982 1.146589 -0.856692
v -1.024189 1.145624 -0.847817
v -1.087174 1.145623 -1.171625
v -0.714854 1.146589 -0.753738
v -0.712271 1.145623 -0.740459
v -0.835897 1.192726 -1.376023
v -1.075565 1.192726 -1.167629
v -0.825358 1.191760 -1.321845
v -1.023376 1.191760 -1.149666
v -1.023376 0.565768 -1.149666
v -0.825358 0.565768 -1.321845
v -0.835658 1.146589 -1.374797
v -0.838241 1.145623 -1.388075
v -0.535588 1.192726 -1.272662
v -0.489533 0.346666 -0.965926
v -0.717561 0.346666 -0.767653
v -0.706807 0.942616 -0.712369
v -0.711094 1.071032 -0.734406
v -1.028844 1.071032 -0.843770
v -1.045784 0.942616 -0.829040
v -0.436279 0.942616 -0.947597
v -0.457506 1.071032 -0.954903
v -0.504728 0.942616 -1.299495
v -0.521669 1.071032 -1.284765
v -0.843705 0.942616 -1.416165
v -0.839418 1.071032 -1.394129
v -1.114233 0.942616 -1.180938
v -1.093006 1.071032 -1.173631
v -1.015720 0.392143 -0.855181
v -1.028844 0.440133 -0.843770
v -1.093006 0.440133 -1.173631
v -1.076562 0.392143 -1.167972
v -0.839419 0.440133 -1.394129
v -0.836098 0.392143 -1.377058
v -0.521669 0.440133 -1.284765
v -0.534793 0.392143 -1.273353
v -0.457506 0.440133 -0.954903
v -0.473951 0.392143 -0.960563
v -0.711094 0.440133 -0.734406
v -0.714414 0.392143 -0.751477
v -1.114233 0.867302 -1.180938
v -1.045784 0.867302 -0.829040
v -1.059822 0.872986 -0.816834
v -1.131822 0.872986 -1.186992
v -1.045784 0.642953 -0.829040
v -1.114233 0.642953 -1.180938
v -1.059822 0.952209 -0.816834
v -0.703255 0.952209 -0.694110
v -0.843705 0.867302 -1.416165
v -0.843705 0.642953 -1.416165
v -0.436279 0.642953 -0.947597
v -0.706807 0.642953 -0.712369
v -0.703255 0.636996 -0.694110
v -0.418690 0.636996 -0.941542
v -0.504728 0.867302 -1.299495
v -0.504728 0.642953 -1.299495
v -1.045784 0.578132 -0.829040
v -0.706807 0.578132 -0.712369
v -1.059822 0.568812 -0.816834
v -0.436279 0.867302 -0.947597
v -1.131822 0.636996 -1.186992
v -1.059822 0.636996 -0.816834
v -0.706807 0.867302 -0.712369
v -0.490690 0.872986 -1.311700
v -0.418690 0.872986 -0.941542
v -0.490690 0.952209 -1.311700
v -0.490690 0.636996 -1.311700
v -1.114233 0.578132 -1.180938
v -1.131822 0.568812 -1.186992
v -0.847257 0.952209 -1.434425
v -0.847257 0.872986 -1.434425
v -0.436279 0.578132 -0.947597
v -0.504728 0.578132 -1.299495
v -0.843705 0.578132 -1.416165
v -0.973274 1.191760 -0.892088
v -0.577238 1.191760 -1.236446
v -0.527136 1.191760 -0.978868
v -0.725154 1.191760 -0.806690
v -0.973274 0.565768 -0.892088
v -0.725154 0.565768 -0.806690
v -0.527136 0.565768 -0.978868
v -0.577238 0.565768 -1.236446
v -0.525381 0.393032 -1.281537
v -0.838479 0.393032 -1.389301
v -0.478350 0.345776 -0.962077
v -0.462158 0.393032 -0.956503
v -0.712032 0.393032 -0.739234
v -0.715302 0.345776 -0.756044
v -1.088355 0.393032 -1.172031
v -1.025131 0.393032 -0.846998
v -1.012208 0.345776 -0.858234
v -0.538304 0.345776 -1.270300
v -0.835210 0.345776 -1.372490
v -1.072162 0.345776 -1.166458
v -1.014924 1.192726 -0.855873
v -0.474947 1.192726 -0.960906
v -0.714615 1.192726 -0.752511
v -0.847257 0.636996 -1.434425
v -0.847257 0.568812 -1.434425
v -0.490691 0.568812 -1.311700
v -0.418690 0.568812 -0.941542
v -1.131822 0.952209 -1.186992
v -0.429842 0.946127 -0.945381
v -0.428309 0.952209 -0.933178
v -0.418690 0.898265 -0.941542
v -0.421124 0.952209 -0.954055
v -0.694201 0.568812 -0.701982
v -0.703255 0.614414 -0.694110
v -0.714600 0.568812 -0.698014
v -0.705383 0.574396 -0.705050
v -0.456568 0.721241 -1.051904
v -0.469663 0.763062 -1.119223
v -0.479640 0.842966 -1.170515
v -0.475038 0.746027 -1.146855
v -0.490011 0.752948 -1.122737
v -0.666511 0.872986 -0.726059
v -0.703255 0.934211 -0.694110
v -0.749295 0.872986 -0.709956
v -0.706800 0.867312 -0.712335
v -0.633057 1.191760 -0.886769
v -0.601285 1.192726 -0.851053
v -0.577362 1.159020 -0.844104
v -0.608747 1.158054 -0.880156
v -0.568161 1.192726 -0.879855
v -0.603588 1.191760 -0.912393
vt 0.889961 0.897797
vt 0.889961 0.897797
vt 0.889961 0.897797
vt 0.889961 0.897797
vt 0.889961 0.897797
vt 0.889961 0.897797
vt 0.889961 0.897797
vt 0.889961 0.897797
vt 0.889961 0.897797
vt 0.889961 0.897797
vt 0.889961 0.897797
vt 0.889961 0.897797
vt 0.889961 0.897797
vt 0.889961 0.897797
vt 0.922898 0.545771
vt 0.922898 0.545771
vt 0.922898 0.545771
vt 0.922898 0.545771
vt 0.889961 0.897797
vt 0.889961 0.897797
vt 0.889961 0.897797
vt 0.889961 0.897797
vt 0.889961 0.897797
vt 0.889961 0.897797
vt 0.922898 0.545771
vt 0.922898 0.545771
vt 0.922898 0.545771
vt 0.922898 0.545771
vt 0.922898 0.545771
vt 0.922898 0.545771
vt 0.922898 0.545771
vt 0.922898 0.545771
vt 0.922898 0.545771
vt 0.922898 0.545771
vt 0.922898 0.545771
vt 0.922898 0.545771
vt 0.922898 0.545771
vt 0.922898 0.545771
vt 0.922898 0.545771
vt 0.922898 0.545771
vt 0.922898 0.545771
vt 0.922898 0.545771
vt 0.922898 0.545771
vt 0.922898 0.545771
vt 0.922898 0.545771
vt 0.922898 0.545771
vt 0.922898 0.545771
vt 0.922898 0.545771
vt 0.889961 0.897797
vt 0.889961 0.897797
vt 0.889961 0.897797
vt 0.889961 0.897797
vt 0.922898 0.545771
vt 0.922898 0.545771
vt 0.922898 0.545771
vt 0.922898 0.545771
vt 0.889961 0.897797
vt 0.889961 0.897797
vt 0.889961 0.897797
vt 0.889961 0.897797
vt 0.922898 0.545771
vt 0.922898 0.545771
vt 0.889961 0.897797
vt 0.889961 0.897797
vt 0.889961 0.897797
vt 0.889961 0.897797
vt 0.922898 0.545771
vt 0.922898 0.545771
vt 0.889961 0.897797
vt 0.889961 0.897797
vt 0.889961 0.897797
vt 0.922898 0.545771
vt 0.922898 0.545771
vt 0.922898 0.545771
vt 0.922898 0.545771
vt 0.889961 0.897797
vt 0.889961 0.897797
vt 0.889961 0.897797
vt 0.889961 0.897797
vt 0.922898 0.545771
vt 0.922898 0.545771
vt 0.922898 0.545771
vt 0.889961 0.897797
vt 0.889961 0.897797
vt 0.889961 0.897797
vt 0.889961 0.897797
vt 0.889961 0.897797
vt 0.889961 0.897797
vt 0.889961 0.897797
vt 0.889961 0.897797
vt 0.889961 0.897797
vt 0.889961 0.897797
vt 0.889961 0.897797
vt 0.889961 0.897797
vt 0.889961 0.897797
vt 0.889961 0.897797
vt 0.889961 0.897797
vt 0.889961 0.897797
vt 0.889961 0.897797
vt 0.889961 0.897797
vt 0.889961 0.897797
vt 0.889961 0.897797
vt 0.922898 0.545771
vt 0.922898 0.545771
vt 0.922898 0.545771
vt 0.922898 0.545771
vt 0.922898 0.545771
vt 0.922898 0.545771
vt 0.889961 0.897797
vt 0.889961 0.897797
vt 0.889961 0.897797
vt 0.889961 0.897797
vt 0.889961 0.897797
vt 0.889961 0.897797
vt 0.922898 0.545771
vt 0.922898 0.545771
vt 0.922898 0.545771
vt 0.922898 0.545771
vt 0.922898 0.545771
vt 0.922898 0.545771
vt 0.922898 0.545771
vt 0.922898 0.545771
vt 0.922898 0.545771
vt 0.922898 0.545771
vt 0.922898 0.545771
vt 0.922898 0.545771
vt 0.922898 0.545771
vt 0.922898 0.545771
vt 0.922898 0.545771
vt 0.922898 0.545771
vt 0.922898 0.545771
vt 0.889961 0.897797
vt 0.889961 0.897797
vt 0.889961 0.897797
vt 0.889961 0.897797
vt 0.889961 0.897797
vt 0.889961 0.897797
vt 0.889961 0.897797
vt 0.889961 0.897797
vt 0.889961 0.897797
vt 0.889961 0.897797
vt 0.889961 0.897797
vt 0.889961 0.897797
vt 0.889961 0.897797
vt 0.889961 0.897797
vt 0.889961 0.897797
vt 0.889961 0.897797
vt 0.889961 0.897797
vt 0.889961 0.897797
vt 0.889961 0.897797
vt 0.889961 0.897797
vt 0.889961 0.897797
vt 0.889961 0.897797
vt 0.889961 0.897797
vt 0.889961 0.897797
vt 0.889961 0.897797
vt 0.889961 0.897797
vt 0.889961 0.897797
vt 0.889961 0.897797
vt 0.889961 0.897797
vt 0.889961 0.897797
vt 0.889961 0.897797
vt 0.889961 0.897797
vt 0.889961 0.897797
vt 0.889961 0.897797
vt 0.889961 0.897797
vt 0.889961 0.897797
vt 0.889961 0.897797
vt 0.889961 0.897797
vt 0.889961 0.897797
vt 0.889961 0.897797
vt 0.922898 0.545771
vt 0.922898 0.545771
vt 0.000000 0.000000
vt 0.000000 0.000000
vt 0.000000 0.000000
vt 0.000000 0.000000
vt 0.000000 0.000000
vt 0.000000 0.000000
vt 0.889961 0.897797
vt 0.889961 0.897797
vn -0.0806 -0.9966 0.0157
vn 0.0806 -0.9966 -0.0157
vn -0.0539 -0.9966 -0.0620
vn -0.0066 0.9998 0.0191
vn 0.6562 0.0000 0.7546
vn 0.0539 -0.9966 0.0620
vn 0.0198 0.9998 -0.0039
vn -0.3218 0.1497 0.9349
vn 0.6488 0.1497 0.7461
vn 0.9705 0.1497 -0.1888
vn 0.3218 0.1497 -0.9349
vn -0.6488 0.1497 -0.7461
vn -0.9705 0.1497 0.1888
vn -0.9366 -0.2994 0.1822
vn -0.6260 -0.2994 -0.7200
vn 0.3105 -0.2994 -0.9022
vn 0.9366 -0.2994 -0.1822
vn 0.6260 -0.2994 0.7200
vn -0.3105 -0.2994 0.9022
vn -0.3266 -0.9430 0.0635
vn -0.9816 0.0000 0.1909
vn 0.1665 0.8592 -0.4838
vn -0.6562 0.0000 -0.7546
vn 0.2276 0.9379 0.2617
vn 0.3254 0.0000 -0.9456
vn 0.9816 0.0000 -0.1909
vn -0.3404 0.9379 0.0662
vn -0.3254 0.0000 0.9456
vn 0.3266 -0.9430 -0.0635
vn 0.3404 0.9379 -0.0662
vn 0.4916 -0.8656 -0.0956
vn -0.1665 0.8592 0.4837
vn 0.1083 -0.9430 -0.3146
vn -0.3223 -0.1395 0.9363
vn 0.6497 -0.1395 0.7472
vn 0.9720 -0.1395 -0.1891
vn 0.3223 -0.1395 -0.9363
vn -0.6497 -0.1395 -0.7472
vn -0.9720 -0.1395 0.1891
vn -0.0198 0.9998 0.0039
vn -0.0133 0.9998 -0.0152
vn 0.0066 0.9998 -0.0191
vn 0.0000 1.0000 0.0000
vn -0.6562 0.0025 -0.7546
vn -0.3175 0.2202 0.9224
vn 0.6401 0.2202 0.7361
vn 0.9575 0.2202 -0.1862
vn 0.3175 0.2202 -0.9224
vn -0.6401 0.2202 -0.7361
vn -0.9575 0.2202 0.1862
vn -0.0267 0.9966 0.0776
vn 0.6261 -0.2994 0.7200
vn -0.3255 0.0000 0.9456
vn 0.9816 0.0000 -0.1910
vn -0.0806 0.9966 0.0157
vn 0.0806 0.9966 -0.0157
vn 0.0267 0.9966 -0.0776
vn 0.0539 0.9966 0.0620
vn 0.0007 -1.0000 0.0008
vn 0.6427 0.2014 0.7392
vn -0.0267 -0.9966 0.0777
vn 0.0267 -0.9966 -0.0777
vn -0.3357 0.8592 -0.3861
vn -0.1083 -0.9430 0.3146
vn 0.1630 -0.8656 -0.4735
vn -0.2276 0.9379 -0.2617
vn -0.4916 -0.8656 0.0956
vn -0.1129 0.9379 0.3279
vn -0.2183 -0.9430 -0.2511
vn 0.5022 0.8592 -0.0977
vn -0.1630 -0.8656 0.4735
vn 0.1129 0.9379 -0.3279
vn 0.3357 0.8592 0.3861
vn 0.3286 -0.8656 0.3779
vn 0.9181 0.2393 0.3160
vn -0.5022 0.8592 0.0977
vn 0.1839 -0.2683 0.9456
vn -0.3286 -0.8656 -0.3779
vn 0.4142 -0.5937 -0.6899
vn 0.7952 0.4937 0.3520
vn 0.1840 -0.2674 0.9458
vn 0.2183 -0.9430 0.2511
vn 0.0133 0.9998 0.0152
vn -0.0539 0.9966 -0.0620
vn 0.6922 0.3707 -0.6192
vn -0.5558 0.6460 0.5232
usemtl Материал.008
s off
f 1/1/1 2/2/1 3/3/1 4/4/1
f 5/5/2 6/6/2 7/7/2 8/8/2
f 9/9/3 1/1/3 4/4/3 10/10/3
f 13/11/4 81/12/4 19/13/4 11/14/4
f 13/15/5 14/16/5 15/17/5 16/18/5
f 17/19/6 5/5/6 8/8/6 18/20/6
f 12/21/7 100/22/7 80/23/7 14/24/7
f 22/25/8 23/26/8 24/27/8 25/28/8
f 26/29/9 27/30/9 23/26/9 22/25/9
f 28/31/10 29/32/10 27/30/10 26/29/10
f 30/33/11 31/34/11 29/32/11 28/31/11
f 32/35/12 33/36/12 31/34/12 30/33/12
f 25/28/13 24/27/13 33/36/13 32/35/13
f 34/37/14 35/38/14 36/39/14 37/40/14
f 37/40/15 36/39/15 38/41/15 39/42/15
f 39/42/16 38/41/16 40/43/16 41/44/16
f 41/44/17 40/43/17 42/45/17 43/46/17
f 43/46/18 42/45/18 44/47/18 45/48/18
f 45/48/19 44/47/19 35/38/19 34/37/19
f 46/49/20 47/50/20 48/51/20 49/52/20
f 50/53/21 47/54/21 46/55/21 51/56/21
f 22/57/22 25/58/22 52/59/22 53/60/22
f 51/56/23 46/55/23 54/61/23 55/62/23
f 56/63/24 57/64/24 58/65/24 59/66/24
f 55/62/25 54/61/25 60/67/25 61/68/25
f 106/69/5 59/66/5 58/65/5 113/70/5 112/71/5
f 61/68/26 60/67/26 118/72/26 119/73/26 116/74/26 56/75/26
f 50/76/27 51/77/27 66/78/27 67/79/27
f 56/75/5 65/80/5 68/81/5 57/82/5
f 123/83/28 122/84/28 53/60/28 52/59/28 48/51/28
f 57/82/28 68/81/28 47/54/28 50/53/28
f 65/85/29 60/86/29 69/87/29 70/88/29
f 69/87/26 71/89/26 111/90/26 110/91/26 70/88/26
f 61/92/30 56/63/30 59/66/30 72/93/30
f 73/94/31 62/95/31 64/96/31 74/97/31
f 30/98/32 28/99/32 71/89/32 75/100/32
f 60/86/33 54/101/33 76/102/33 69/87/33
f 44/47/34 63/103/34 62/104/34 35/38/34
f 42/45/35 77/105/35 63/103/35 44/47/35
f 40/43/36 78/106/36 77/105/36 42/45/36
f 38/41/37 79/107/37 78/106/37 40/43/37
f 36/39/38 73/108/38 79/107/38 38/41/38
f 35/38/39 62/104/39 73/108/39 36/39/39
f 82/109/40 101/110/40 19/13/40 81/12/40
f 83/111/41 102/112/41 126/113/41 125/114/41
f 80/23/42 100/22/42 102/112/42 83/111/42
f 15/17/43 84/115/43 85/116/43 86/117/43 87/118/43 16/18/43
f 83/119/44 125/120/44 128/121/44 130/122/44 82/123/44 86/117/44 85/116/44
f 81/124/28 13/15/28 16/18/28 87/118/28
f 14/16/26 80/125/26 84/115/26 15/17/26
f 80/125/25 83/119/25 85/116/25 84/115/25
f 82/123/21 81/124/21 87/118/21 86/117/21
f 23/26/45 9/126/45 6/127/45 24/27/45
f 27/30/46 1/128/46 9/126/46 23/26/46
f 29/32/47 2/129/47 1/128/47 27/30/47
f 31/34/48 17/130/48 2/129/48 29/32/48
f 33/36/49 5/131/49 17/130/49 31/34/49
f 24/27/50 6/127/50 5/131/50 33/36/50
f 39/132/51 41/133/51 88/134/51 89/135/51
f 20/136/52 43/137/52 45/138/52 21/139/52
f 43/137/53 20/136/53 90/140/53 91/141/53
f 21/139/54 45/138/54 92/142/54 93/143/54
f 41/133/55 43/137/55 91/141/55 88/134/55
f 34/144/56 37/145/56 94/146/56 95/147/56
f 93/143/19 92/142/19 95/147/19 96/148/19
f 97/149/17 88/134/17 91/141/17 90/140/17
f 98/150/16 89/135/16 88/134/16 97/149/16
f 99/151/15 94/146/15 89/135/15 98/150/15
f 96/148/14 95/147/14 94/146/14 99/151/14
f 45/138/57 34/144/57 95/147/57 92/142/57
f 37/145/58 39/132/58 89/135/58 94/146/58
f 21/139/59 93/143/59 96/148/59 99/151/59 98/150/59 97/149/59 90/140/59 20/136/59
f 7/7/50 100/22/50 12/21/50 8/8/50
f 8/8/49 12/21/49 11/14/49 18/20/49
f 18/20/48 11/14/48 19/13/48 3/3/48
f 3/3/47 19/13/47 101/110/47 4/4/47
f 4/4/60 101/110/60 129/152/60 127/153/60 126/113/60 102/112/60 10/10/60
f 10/10/45 102/112/45 100/22/45 7/7/45
f 2/2/61 17/19/61 18/20/61 3/3/61
f 6/6/62 9/9/62 10/10/62 7/7/62
f 64/96/21 67/79/21 66/78/21 74/97/21
f 74/97/23 66/78/23 103/154/23 104/155/23
f 104/155/25 103/154/25 72/93/25 105/156/25
f 105/156/26 72/93/26 59/66/26 106/69/26
f 114/157/28 113/70/28 58/65/28 67/79/28 64/96/28
f 48/51/21 52/59/21 107/158/21 49/52/21
f 49/52/23 107/158/23 75/100/23 76/102/23
f 76/102/25 75/100/25 71/89/25 69/87/25
f 26/159/63 22/57/63 53/60/63 109/160/63 108/161/63
f 47/50/64 68/162/64 124/163/64 123/83/64 48/51/64
f 62/95/65 63/164/65 115/165/65 114/157/65 64/96/65
f 70/88/5 110/91/5 109/160/5 53/60/5 122/84/5 121/166/5
f 51/77/66 55/167/66 103/154/66 66/78/66
f 77/168/67 78/169/67 105/156/67 106/69/67
f 57/64/68 50/76/68 67/79/68 58/65/68
f 54/101/69 46/49/69 49/52/69 76/102/69
f 25/58/70 32/170/70 107/158/70 52/59/70
f 78/169/71 79/171/71 104/155/71 105/156/71
f 55/167/72 61/92/72 72/93/72 103/154/72
f 32/170/73 30/98/73 75/100/73 107/158/73
f 79/171/74 73/94/74 74/97/74 104/155/74
f 108/161/75 109/160/75 110/91/75 111/90/75
f 28/99/76 26/159/76 108/161/76 111/90/76 71/89/76
f 112/71/77 113/70/77 114/157/77 115/165/77
f 63/164/78 77/168/78 106/69/78 112/71/78 115/165/78
f 56/75/26 116/74/26 117/172/26 118/72/26 60/67/26 65/80/26
f 117/172/79 116/74/79 120/173/79 118/72/79
f 120/173/80 116/74/80 119/73/80 118/72/80
f 121/166/81 122/84/81 123/83/81 124/163/81
f 68/162/82 65/85/82 70/88/82 121/166/82 124/163/82
f 14/24/83 13/11/83 11/14/83 12/21/83
f 91/174/84 43/175/84 45/176/84 92/177/84
f 93/178/18 90/179/18 91/174/18 92/177/18
f 125/114/85 126/113/85 127/153/85 128/180/85
f 128/180/86 127/153/86 129/152/86 130/181/86
f 130/181/41 129/152/41 101/110/41 82/109/41
